/* XPM */
static char *result[] = {
/* columns rows colors chars-per-pixel */
"64 64 124 2 ",
"   c #52448E",
".  c #57498F",
"X  c #554790",
"o  c #564890",
"O  c #5B4D92",
"+  c #5E5094",
"@  c #5F539C",
"#  c #625496",
"$  c #675A95",
"%  c #695C96",
"&  c #61559D",
"*  c #665898",
"=  c #685A98",
"-  c #6D6097",
";  c #6E619C",
":  c #72659B",
">  c #75699B",
",  c #796E9B",
"<  c #7E739C",
"1  c #655AA0",
"2  c #6C62A2",
"3  c #6F65AA",
"4  c #7065A3",
"5  c #7469A4",
"6  c #796CA3",
"7  c #7067A8",
"8  c #746BA9",
"9  c #786FAA",
"0  c #7F74A6",
"q  c #84799F",
"w  c #897F9F",
"e  c #857BA3",
"r  c #897FA1",
"t  c #8376AA",
"y  c #857AAB",
"u  c #887CAD",
"i  c #8D83A1",
"p  c #8A82AD",
"a  c #9389A3",
"s  c #988FA5",
"d  c #978FAC",
"f  c #9C93A5",
"g  c #9B91AC",
"h  c #9F98AE",
"j  c #9186B2",
"k  c #968BB4",
"l  c #9A8EB7",
"z  c #9E95B2",
"x  c #9D92B9",
"c  c #A199A7",
"v  c #A49DAA",
"b  c #A39AB4",
"n  c #A297BD",
"m  c #A7A1AE",
"M  c #ABA4AA",
"N  c #AFA8AB",
"B  c #B2ABAD",
"V  c #B6B0AD",
"C  c #AEA7B2",
"Z  c #B1ACB5",
"A  c #B3AABF",
"S  c #B6B1B5",
"D  c #B8B4B4",
"F  c #BEB9B0",
"G  c #B9B2B9",
"H  c #C1BBB2",
"J  c #C6C1B2",
"K  c #CAC5B3",
"L  c #CDC9B4",
"P  c #CEC9B8",
"I  c #D2CEB6",
"U  c #D5D1B7",
"Y  c #D5D2BA",
"T  c #D9D6BB",
"R  c #DCDAB9",
"E  c #E2DFBD",
"W  c #E5E3BB",
"Q  c #E8E6BD",
"!  c #ECEBBE",
"~  c #F3F2BF",
"^  c #AEA3C4",
"/  c #B2A7C6",
"(  c #B3A9C6",
")  c #B7ADC8",
"_  c #BFB7C4",
"`  c #BBB1C9",
"'  c #C1B7CE",
"]  c #C2B9CF",
"[  c #C5BCD1",
"{  c #CBC4C2",
"}  c #C8C1CB",
"|  c #D2CDC2",
" . c #D2CBC9",
".. c #D7D2C0",
"X. c #CCC4D3",
"o. c #D4CCD6",
"O. c #D4CCD8",
"+. c #DCD5D3",
"@. c #DCD4DA",
"#. c #E2DFC1",
"$. c #E3DECA",
"%. c #E4DFD0",
"&. c #E4DDDD",
"*. c #E6E4C0",
"=. c #E9E6C1",
"-. c #EEECC4",
";. c #E5E0CB",
":. c #EEEBCD",
">. c #F1EFC4",
",. c #F1EDCC",
"<. c #F4F3C0",
"1. c #F8F7C1",
"2. c #FBFBC3",
"3. c #F5F3CC",
"4. c #F8F6CD",
"5. c #E7E1D7",
"6. c #EBE6D5",
"7. c #E7E1D8",
"8. c #EEE8DB",
"9. c #F1EDDB",
"0. c #F6F3D1",
"q. c #FBF8D3",
"w. c #F5F1DA",
"e. c None",
/* pixels */
"e.e.e.e.e.e.e.e.e.e.e.e.e.e.e.e.e.e.e.e.e.e.e.e.e.e.e.e.e.e.e.e.e.e.e.e.e.e.e.e.e.e.e.e.e.e.e.e.e.e.e.e.e.e.e.e.e.e.e.e.e.e.e.e.",
"e.e.e.e.e.e.e.e.e.e.e.e.e.e.e.e.e.e.e.e.e.e.e.e.e.e.e.e.e.e.e.e.e.e.e.e.e.e.e.e.e.e.e.e.e.e.e.e.e.e.e.e.e.e.e.e.e.e.e.e.e.e.e.e.",
"e.e.e.e.e.e.e.e.e.e.e.e.e.e.e.e.e.e.e.e.e.e.e.e.e.e.e.e.e.e.e.e.e.e.e.e.e.e.e.e.e.e.e.e.e.e.e.e.e.e.e.e.e.e.e.e.e.e.e.e.e.e.e.e.",
"e.e.e.e.e.e.e.e.e.e.e.e.e.e.e.e.e.e.e.e.e.e.e.e.e.e.e.e.e.e.e.e.e.e.e.e.e.e.e.e.e.e.e.e.e.e.e.e.e.e.e.e.e.e.e.e.e.e.e.e.e.e.e.e.",
"e.e.e.e.e.e.e.e.e.e.e.e.e.e.e.e.e.e.e.e.e.e.e.e.e.e.e.e.e.e.e.e.e.e.e.e.e.e.e.e.e.e.e.e.e.e.e.e.e.e.e.e.e.e.e.e.e.e.e.e.e.e.e.e.",
"e.e.e.e.e.e.e.e.e.e.e.e.e.e.e.e.e.e.e.e.e.e.e.e.e.e.e.e.e.e.e.e.e.e.e.e.e.e.e.e.e.e.e.e.e.e.e.e.e.e.e.e.e.e.e.e.e.e.e.e.e.e.e.e.",
"e.e.e.e.e.e.e.e.e.e.e.e.e.e.e.e.e.e.X X   X     e.e.e.e.e.e.e.e.e.e.e.e.e.e.e.e.X X X X   X e.e.e.e.e.e.e.e.e.e.e.e.e.e.e.e.e.e.",
"e.e.e.e.e.e.e.e.e.e.e.e.e.e.e.e.O O o O O o O O O e.e.e.e.e.e.e.e.e.e.e.e.e.e.O O O o O O o O O e.e.e.e.e.e.e.e.e.e.e.e.e.e.e.e.",
"e.e.e.e.e.e.e.e.e.e.e.e.e.e.e.e.: > > > > > > > : : e.e.e.e.e.e.e.e.e.e.e.e.> > > > > > > > : > e.e.e.e.e.e.e.e.e.e.e.e.e.e.e.e.",
"e.e.e.e.e.e.e.e.e.e.e.e.e.e.e.< a f c c c f c c f i > e.e.e.e.e.e.e.e.e.e.> i s c c c c c c f a < e.e.e.e.e.e.e.e.e.e.e.e.e.e.e.",
"e.e.e.e.e.e.e.e.e.e.e.e.e.o $ r N K U U I I U I H c , + e.e.e.e.e.e.e.e.+ , c H I U I I I U K N r $ o e.e.e.e.e.e.e.e.e.e.e.e.e.",
"e.e.e.e.e.e.e.e.e.e.e.e.e.o $ i F W 1.1.~ ~ ~ ~ U M < +   e.e.e.e.e.e.X + < v T ~ ~ ~ ! 1.1.W F i $ o e.e.e.e.e.e.e.e.e.e.e.e.e.",
"e.e.e.e.e.e.e.e.e.e.e.e.e.o $ i H ! 2.2.2.2.2.1.R M , O     e.e.e.e.    o , M R ~ 2.2.1.2.2.! H i $ o e.e.e.e.e.e.e.e.e.e.e.e.e.",
"e.e.e.e.e.e.e.e.e.e.e.e.e.o $ i F Q 2.2.<.1.2.1.R M , O   . . . . o     O , M R 2.2.1.1.2.2.Q F i $ o e.e.e.e.e.e.e.e.e.e.e.e.e.",
"e.e.e.e.e.e.e.e.e.e.e.e.e.o $ i F Q 1.1.<.<.1.<.R Z q % + * * * * * # # $ q N R ~ ~ 1.~ 2.1.Q F i $ o e.e.e.e.e.e.e.e.e.e.e.e.e.",
"e.e.e.e.e.e.e.e.e.e.e.e.e.X $ i F Q 1.1.<.<.1.~ E H c u t t t t y y y t u b H #.~ 2.~ <.1.1.Q F i $ o e.e.e.e.e.e.e.e.e.e.e.e.e.",
"e.e.e.e.e.e.e.e.e.e.e.e.e.o $ i F Q 1.<.<.<.~ <.*..._ ( ^ ^ ( ( ^ / ^ ^ ( _ ..*.1.~ ~ -.1.1.Q F i $ X e.e.e.e.e.e.e.e.e.e.e.e.e.",
"e.e.e.e.e.e.e.e.e.e.e.e.e.o $ i F Q 1.1.<.<.~ <.-.;.+.O.O.O.O.O.O.O.O.O.O.+.;.-.~ ~ ~ <.1.1.Q F i $ o e.e.e.e.e.e.e.e.e.e.e.e.e.",
"e.e.e.e.e.e.e.e.e.e.e.e.e.o $ i F Q 1.1.<.<.~ <.>.:.6.7.7.7.7.7.7.7.7.7.7.6.:.-.<.~ <.~ 1.1.Q F i $ o e.e.e.e.e.e.e.e.e.e.e.e.e.",
"e.e.e.e.e.e.e.e.e.e.e.e.e.o $ i F Q 1.1.>.~ ~ <.>.>.:.:.:.:.:.6.:.:.:.:.:.:.-.<.~ ~ ~ ~ 1.1.W F i $ o e.e.e.e.e.e.e.e.e.e.e.e.e.",
"e.e.e.e.e.e.e.e.e.e.e.e.e.o $ i F Q 1.1.~ ~ <.<.>.<.-.<.>.>.>.>.,.>.>.>.>.<.<.~ <.<.~ <.1.1.Q F i $ o e.e.e.e.e.e.e.e.e.e.e.e.e.",
"e.e.e.e.e.e.e.e.e.e.e.e.e.o $ i F Q 1.1.~ ~ <.~ <.<.~ ~ ~ ~ ~ ~ <.~ ~ ~ ~ ~ <.>.<.<.-.<.1.1.Q F i $ o e.e.e.e.e.e.e.e.e.e.e.e.e.",
"e.e.e.e.e.e.e.e.e.e.e.e.e.o $ i F W 1.<.<.~ <.>.~ <.~ ~ ~ ~ ~ ~ ~ ~ ~ ~ ~ ~ <.<.<.<.~ ~ 1.1.Q F i $ X e.e.e.e.e.e.e.e.e.e.e.e.e.",
"e.e.e.e.e.e.e.e.e.e.e.e.e.o $ i F Q 1.1.~ ~ ~ ~ <.<.<.<.~ 1.~ <.<.<.<.1.>.~ <.<.~ <.~ ~ 1.1.Q F i $ X e.e.e.e.e.e.e.e.e.e.e.e.e.",
"e.e.e.e.e.e.e.e.e.e.e.e.X o $ i F Q 1.1.<.<.<.<.! <.<.<.<.>.~ ~ <.~ <.~ >.~ ~ <.<.<.>.~ 1.1.Q F i $ o X e.e.e.e.e.e.e.e.e.e.e.e.",
"e.e.e.e.e.e.e.e.e.e.e.O o o $ i F Q 1.1.<.! <.<.<.<.<.<.<.~ ~ ~ <.<.<.<.~ ~ >.<.~ <.~ ~ 1.1.Q F i $ o o O e.e.e.e.e.e.e.e.e.e.e.",
"e.e.e.e.e.e.e.e.e.e.O O o o $ i H W 1.1.<.<.<.<.<.<.<.! ~ <.>.<.<.>.~ ~ ~ <.~ ~ ~ ~ <.<.1.1.Q F i $ o o O O e.e.e.e.e.e.e.e.e.e.",
"e.e.e.e.e.e.e.e.e.e.+ O o o $ i H W 1.1.<.<.~ <.<.<.<.<.~ ~ ~ <.~ <.~ ~ <.<.~ ~ ~ ~ >.~ 1.1.Q F i $ o o + O e.e.e.e.e.e.e.e.e.e.",
"e.e.e.e.e.e.e.e.e.e.e.O o o $ i H W <.1.<.<.~ ~ <.-.~ ~ ~ ~ ~ <.<.<.~ ~ >.~ ~ <.>.~ ~ <.~ 2.W H i $ o o O e.e.e.e.e.e.e.e.e.e.e.",
"e.e.e.e.e.e.e.e.e.e.e.e.X o $ i H Q 1.1.<.<.~ ~ ~ ~ -.<.<.<.~ ~ ~ <.<.~ ~ ~ ~ <.<.<.~ ~ 2.~ Q H i % o X e.e.e.e.e.e.e.e.e.e.e.e.",
"e.e.e.e.e.e.e.e.e.e.e.e.e.o $ i F Q 2.1.<.~ <.-.~ <.<.<.~ <.<.~ >.~ >.~ <.~ <.>.~ <.~ ~ ~ 2.Q H i $ o e.e.e.e.e.e.e.e.e.e.e.e.e.",
"e.e.e.e.e.e.e.e.e.e.e.e.X o $ i H W 1.1.<.<.<.<.~ <.~ <.<.<.~ >.~ ~ ~ <.<.~ ~ ~ <.<.<.~ 2.~ Q H i $ o X e.e.e.e.e.e.e.e.e.e.e.e.",
"e.e.e.e.e.e.e.e.e.e.+ O o o % i F Q 1.1.<.~ ~ ~ ~ <.<.~ ~ ~ <.~ ~ <.<.~ <.~ ~ ~ ! <.<.<.1.1.Q H i $ . . O + e.e.e.e.e.e.e.e.e.e.",
"e.e.e.e.e.e.e.e.e.e.O O o o $ i H W 1.1.<.<.<.~ <.<.<.<.~ >.<.<.<.<.<.~ >.~ <.<.<.<.<.<.<.1.Q H i - o . O O e.e.e.e.e.e.e.e.e.e.",
"e.e.e.e.e.e.e.e.e.e.+ O o o $ i H Q 2.2.<.1.~ 2.<.<.~ <.~ 1.~ <.~ <.<.1.1.<.<.~ ~ 1.1.1.2.2.Q H i $ o o + + e.e.e.e.e.e.e.e.e.e.",
"e.e.e.e.e.e.e.e.e.e.e.e.o o $ i J ! 2.2.1.1.2.~ 1.1.1.1.1.1.1.1.1.1.1.1.1.1.1.1.1.1.1.1.2.2.! H i $ o o e.e.e.e.e.e.e.e.e.e.e.e.",
"e.e.e.e.e.e.e.e.e.e.e.e.e.o $ i F W <.1.~ ~ ! ! ~ >.~ >.>.~ >.~ ~ >.<.>.~ >.~ ~ >.~ ! ~ ~ ~ W F i $ o e.e.e.e.e.e.e.e.e.e.e.e.e.",
"e.e.e.e.e.e.e.e.e.e.e.e.e.o $ w N L U I I I T T Y T T T R T T T T T T T Y T T Y T Y U I U U K N i $ o e.e.e.e.e.e.e.e.e.e.e.e.e.",
"e.e.e.e.e.e.e.e.e.e.e.e.e.e.e.q a f f f f h m M Z Z Z Z Z Z Z Z Z Z Z Z Z Z Z Z N m h f f f f a < e.e.e.e.e.e.e.e.e.e.e.e.e.e.e.",
"e.e.e.e.e.e.e.e.e.e.e.e.e.e.e.e.- > > > > , 0 p p p p p p p p p p p p p p p p p p < , > > > > ; e.e.e.e.e.e.e.e.e.e.e.e.e.e.e.e.",
"e.e.e.e.e.e.e.e.e.e.e.e.e.e.e.e.- : ; : > 5 5 8 9 8 9 9 7 8 7 7 7 7 7 8 8 9 8 9 7 4 > > : : 4 ; e.e.e.e.e.e.e.e.e.e.e.e.e.e.e.e.",
"e.e.e.e.e.e.e.e.e.e.e.e.e.e.e.8 p j d d f a e 8 3 3 3 3 2 1 @ @ @ @ 1 2 3 8 3 3 8 p a s d d j p 6 e.e.e.e.e.e.e.e.e.e.e.e.e.e.e.",
"e.e.e.e.e.e.e.e.e.e.e.e.e.. = t x ` } | P F h t 8 8 8 8 2 & @ + + + * 2 7 9 8 8 0 h F P | } ` x t * . e.e.e.e.e.e.e.e.e.e.e.e.e.",
"e.e.e.e.e.e.e.e.e.e.e.e.e.. * y ( O.5.:.-.R D d 0 9 8 7 7 - - - - ; ; 2 7 8 9 0 z D T -.:.7.O.^ y * . e.e.e.e.e.e.e.e.e.e.e.e.e.",
"e.e.e.e.e.e.e.e.e.e.e.e.e.o * u / @.9.q.4.-.Y S z y 5 ; 6 r a f f a i 5 ; 8 e z S Y =.2.q.9.@.( y * o e.e.e.e.e.e.e.e.e.e.e.e.e.",
"e.e.e.e.e.e.e.e.e.e.e.e.e.o * u / @.8.4.1.<.Q Y F s > ; q N H I I J M e - > d F T *.<.1.0.8.@.^ y * . e.e.e.e.e.e.e.e.e.e.e.e.e.",
"e.e.e.e.e.e.e.e.e.e.e.e.e.o * 0 ^ X.+.;.W ! <.-.T M q < f J Q 1.<.Q K s , < N T -.~ Q *.$.+.X.^ y * . e.e.e.e.e.e.e.e.e.e.e.e.e.",
"e.e.e.e.e.e.e.e.e.e.e.e.e.e.* 0 k ^ ( G F L W ! W J c f B R 2.2.2.1.R V f v J W ~ E L H G ( ^ z t * e.e.e.e.e.e.e.e.e.e.e.e.e.e.",
"e.e.e.e.e.e.e.e.e.e.e.e.e.e.e.5 0 y y r i v K W ! E L K U ! 2.2.2.1.Q T J L E ! W K v i r y y 0 : e.e.e.e.e.e.e.e.e.e.e.e.e.e.e.",
"e.e.e.e.e.e.e.e.e.e.e.e.e.e.e.e.* * # # % q B E ~ ! ! Q Q Q ! ! ! ! ! Q Q ! >.<.R B r = # # * * e.e.e.e.e.e.e.e.e.e.e.e.e.e.e.e.",
"e.e.e.e.e.e.e.e.e.e.e.e.e.e.e.e.e..     O , b ..,.4.3.-.#.Y K K K K Y #.>.3.4.,...v > O   . o e.e.e.e.e.e.e.e.e.e.e.e.e.e.e.e.e.",
"e.e.e.e.e.e.e.e.e.e.e.e.e.e.e.e.e.e.    O > b  .6.w.9.%.{ C s i i f C { $.9.9.6. .b > .     e.e.e.e.e.e.e.e.e.e.e.e.e.e.e.e.e.e.",
"e.e.e.e.e.e.e.e.e.e.e.e.e.e.e.e.e.e.e.X + > n [ &.&.&.X.A u > $ $ : i / o.&.&.@.X.x 6 O . e.e.e.e.e.e.e.e.e.e.e.e.e.e.e.e.e.e.e.",
"e.e.e.e.e.e.e.e.e.e.e.e.e.e.e.e.e.e.e.e.+ 5 k ) ] ] ] ) n 6 +     # 6 x ) ] [ ' / k > # e.e.e.e.e.e.e.e.e.e.e.e.e.e.e.e.e.e.e.e.",
"e.e.e.e.e.e.e.e.e.e.e.e.e.e.e.e.e.e.e.e.e.: y j k k k j y : e.e.e.e.: t j k k k j t : e.e.e.e.e.e.e.e.e.e.e.e.e.e.e.e.e.e.e.e.e.",
"e.e.e.e.e.e.e.e.e.e.e.e.e.e.e.e.e.e.e.e.e.e.= : : : 4 ; ; e.e.e.e.e.e.; : ; 4 : 4 ; e.e.e.e.e.e.e.e.e.e.e.e.e.e.e.e.e.e.e.e.e.e.",
"e.e.e.e.e.e.e.e.e.e.e.e.e.e.e.e.e.e.e.e.e.e.e.O O O O O O e.e.e.e.e.e.O O O O O O e.e.e.e.e.e.e.e.e.e.e.e.e.e.e.e.e.e.e.e.e.e.e.",
"e.e.e.e.e.e.e.e.e.e.e.e.e.e.e.e.e.e.e.e.e.e.e.e.  .   e.e.e.e.e.e.e.e.e.e.X   . e.e.e.e.e.e.e.e.e.e.e.e.e.e.e.e.e.e.e.e.e.e.e.e.",
"e.e.e.e.e.e.e.e.e.e.e.e.e.e.e.e.e.e.e.e.e.e.e.e.e.e.e.e.e.e.e.e.e.e.e.e.e.e.e.e.e.e.e.e.e.e.e.e.e.e.e.e.e.e.e.e.e.e.e.e.e.e.e.e.",
"e.e.e.e.e.e.e.e.e.e.e.e.e.e.e.e.e.e.e.e.e.e.e.e.e.e.e.e.e.e.e.e.e.e.e.e.e.e.e.e.e.e.e.e.e.e.e.e.e.e.e.e.e.e.e.e.e.e.e.e.e.e.e.e.",
"e.e.e.e.e.e.e.e.e.e.e.e.e.e.e.e.e.e.e.e.e.e.e.e.e.e.e.e.e.e.e.e.e.e.e.e.e.e.e.e.e.e.e.e.e.e.e.e.e.e.e.e.e.e.e.e.e.e.e.e.e.e.e.e.",
"e.e.e.e.e.e.e.e.e.e.e.e.e.e.e.e.e.e.e.e.e.e.e.e.e.e.e.e.e.e.e.e.e.e.e.e.e.e.e.e.e.e.e.e.e.e.e.e.e.e.e.e.e.e.e.e.e.e.e.e.e.e.e.e.",
"e.e.e.e.e.e.e.e.e.e.e.e.e.e.e.e.e.e.e.e.e.e.e.e.e.e.e.e.e.e.e.e.e.e.e.e.e.e.e.e.e.e.e.e.e.e.e.e.e.e.e.e.e.e.e.e.e.e.e.e.e.e.e.e.",
"e.e.e.e.e.e.e.e.e.e.e.e.e.e.e.e.e.e.e.e.e.e.e.e.e.e.e.e.e.e.e.e.e.e.e.e.e.e.e.e.e.e.e.e.e.e.e.e.e.e.e.e.e.e.e.e.e.e.e.e.e.e.e.e."
};
