/* XPM */
static char *result[] = {
/* columns rows colors chars-per-pixel */
"64 64 187 2 ",
"   c #E5DC7F",
".  c #ECE37A",
"X  c #52448E",
"o  c #57498F",
"O  c #554690",
"+  c #574990",
"@  c #5B4D92",
"#  c #5E5093",
"$  c #655595",
"%  c #675A95",
"&  c #665898",
"*  c #685A98",
"=  c #695C96",
"-  c #6E619D",
";  c #72649B",
":  c #75699A",
">  c #7A6D9C",
",  c #7E739C",
"<  c #6C63A9",
"1  c #7063A0",
"2  c #756AA3",
"3  c #796DA5",
"4  c #746BAA",
"5  c #7E73A6",
"6  c #7D75AC",
"7  c #896E9A",
"8  c #8A739C",
"9  c #867B9F",
"0  c #8C7C9F",
"q  c #8977A1",
"w  c #857BA4",
"e  c #8C7EA1",
"r  c #8376AA",
"t  c #857AAB",
"y  c #897DAD",
"u  c #917EA3",
"i  c #988E98",
"p  c #A69D95",
"a  c #ADA49A",
"s  c #B6AD8B",
"d  c #8D84A2",
"f  c #8A82AD",
"g  c #9086A2",
"h  c #9C87A7",
"j  c #948CA4",
"k  c #9D87A8",
"l  c #948DAF",
"z  c #9E88A8",
"x  c #9C95A6",
"c  c #9B92AA",
"v  c #9F99AE",
"b  c #9186B2",
"n  c #968BB4",
"m  c #9A8EB7",
"M  c #9D95B3",
"N  c #9D92B9",
"B  c #A18FAB",
"V  c #B78FA2",
"C  c #A199A7",
"Z  c #A49CAB",
"A  c #AF99AE",
"S  c #B793A3",
"D  c #BA9DA7",
"F  c #A39BB4",
"G  c #A297BD",
"H  c #ABA4AA",
"J  c #AFA8AB",
"K  c #B1ABAD",
"L  c #BDABAC",
"P  c #BCB4AF",
"I  c #A7A1B3",
"U  c #ACA5B3",
"Y  c #AEA9B4",
"T  c #B0ABB4",
"R  c #B3AABF",
"E  c #BEA9B3",
"W  c #BEB9B0",
"Q  c #B8B3B6",
"!  c #C4BC98",
"~  c #DDAAA9",
"^  c #DEB0AB",
"/  c #C1B4B3",
"(  c #C2BDB2",
")  c #CBB2B7",
"_  c #D3BBBA",
"`  c #EAB3AB",
"'  c #E1BDAF",
"]  c #EBB9AD",
"[  c #E3BFB0",
"{  c #CDC487",
"}  c #DAD49A",
"|  c #DBD284",
" . c #E4DD87",
".. c #ECE481",
"X. c #EDE68D",
"o. c #F0EA8D",
"O. c #F4EC81",
"+. c #EAE495",
"@. c #F2ED9E",
"#. c #F1EB92",
"$. c #F6F091",
"%. c #C6C1AD",
"&. c #DDD8A8",
"*. c #C5C1B2",
"=. c #CAC5B4",
"-. c #CEC9B5",
";. c #CFCBBA",
":. c #D2CEB6",
">. c #D2CDBA",
",. c #D4D2B6",
"<. c #D7D4BB",
"1. c #D8D6BA",
"2. c #DDDAB9",
"3. c #EBC0AF",
"4. c #ECC5B1",
"5. c #EECBB3",
"6. c #F2CBB3",
"7. c #E9D5B7",
"8. c #EFD8B6",
"9. c #E2DEBB",
"0. c #EFDAB8",
"q. c #E4D0B5",
"w. c #F1D6B6",
"e. c #F1D8B7",
"r. c #F2DDB9",
"t. c #EDE9A6",
"y. c #F3EFA2",
"u. c #F5F2AB",
"i. c #F5F1A7",
"p. c #E5E3BC",
"a. c #E9E6BD",
"s. c #ECEABC",
"d. c #EBE8B2",
"f. c #F6E4BB",
"g. c #F8E4BB",
"h. c #F2ECBE",
"j. c #F6F4B4",
"k. c #F4F3BF",
"l. c #AEA3C3",
"z. c #B1A6C4",
"x. c #B3A9C6",
"c. c #B7ADC8",
"v. c #BBB2C9",
"b. c #C1B7CE",
"n. c #C2B9CF",
"m. c #C0B9C4",
"M. c #C5BCD1",
"N. c #C8C1CB",
"B. c #C8C2C2",
"V. c #D0CAC1",
"C. c #D2CBC9",
"Z. c #D6D2C2",
"A. c #CCC4D3",
"S. c #D2CAD4",
"D. c #D4CBD8",
"F. c #DBD5D4",
"G. c #DDD5DE",
"H. c #E6CFC0",
"J. c #E2DDCD",
"K. c #E7DCC1",
"L. c #F3DCC4",
"P. c #E2DBD9",
"I. c #E4DFD4",
"U. c #E6E4C0",
"Y. c #E9E6C1",
"T. c #EEECC5",
"R. c #E9E5CE",
"E. c #EBE8CF",
"W. c #E5E2CC",
"Q. c #F0EEC4",
"!. c #FEEDC6",
"~. c #F1EDCC",
"^. c #F1E5C2",
"/. c #F4F3C0",
"(. c #F9F5C2",
"). c #F7F8C2",
"_. c #F9F9C2",
"`. c #F6F4CC",
"'. c #E7E2D1",
"]. c #ECE7D5",
"[. c #EEE9D6",
"{. c #EEE8DB",
"}. c #F2EDDB",
"|. c #F9F6D2",
" X c #DCD3E0",
".X c #E1D9E0",
"XX c None",
/* pixels */
"XXXXXXXXXXXXXXXXXXXXXXXXXXXXXXXXXXXXXXXXXXXXXXXXXXXXXXXXXXXXXXXXXXXXXXXXXXXXXXXXXXXXXXXXXXXXXXXXXXXXXXXXXXXXXXXXXXXXXXXXXXXXXXXX",
"XXXXXXXXXXXXXXXXXXXXXXXXXXXXXXXXXXXXXXXXXXXXXXXXXXXXXXXXXXXXXXXXXXXXXXXXXXXXXXXXXXXXXXXXXXXXXXXXXXXXXXXXXXXXXXXXXXXXXXXXXXXXXXXX",
"XXXXXXXXXXXXXXXXXXXXXXXXXXXXXXXXXXXXXXXXXXXXXXXXXXXXXXXXXXXXXXXXXXXXXXXXXXXXXXXXXXXXXXXXXXXXXXXXXXXXXXXXXXXXXXXXXXXXXXXXXXXXXXXX",
"XXXXXXXXXXXXXXXXXXXXXXXXXXXXXXXXXXXXXXXXXXXXXXXXXXXXXXXXXXXXXXXXXXXXXXXXXXXXXXXXXXXXXXXXXXXXXXXXXXXXXXXXXXXXXXXXXXXXXXXXXXXXXXXX",
"XXXXXXXXXXXXXXXXXXXXXXXXXXXXXXXXXXXXXXXXXXXXXXXXXXXXXXXXXXXXXXXXXXXXXXXXXXXXXXXXXXXXXXXXXXXXXXXXXXXXXXXXXXXXXXXXXXXXXXXXXXXXXXXX",
"XXXXXXXXXXXXXXXXXXXXXXXXXXXXXXXXXXXXXXXXXXXXXXXXXXXXXXXXXXXXXXXXXXXXXXXXXXXXXXXXXXXXXXXXXXXXXXXXXXXXXXXXXXXXXXXXXXXXXXXXXXXXXXXX",
"XXXXXXXXXXXXXXXXXXXXXXXXXXXXXXXXXXXXO X X O X X XXXXXXXXXXXXXXXXXXXXXXXXXXXXXXXXX X X O X O XXXXXXXXXXXXXXXXXXXXXXXXXXXXXXXXXXXX",
"XXXXXXXXXXXXXXXXXXXXXXXXXXXXXXXX@ @ + @ @ @ @ @ @ XXXXXXXXXXXXXXXXXXXXXXXXXXXX@ @ @ @ @ @ @ @ @ XXXXXXXXXXXXXXXXXXXXXXXXXXXXXXXX",
"XXXXXXXXXXXXXXXXXXXXXXXXXXXXXXXX: : : : : : : : : ; XXXXXXXXXXXXXXXXXXXXXXXX; : : : : : : : : ; XXXXXXXXXXXXXXXXXXXXXXXXXXXXXXXX",
"XXXXXXXXXXXXXXXXXXXXXXXXXXXXXX, j C C C C x C x x d : XXXXXXXXXXXXXXXXXXXX: d x x C C x C C x i , XXXXXXXXXXXXXXXXXXXXXXXXXXXXXX",
"XXXXXXXXXXXXXXXXXXXXXXXXXX+ % d K =.,.,.:.:.,.:.W x > # XXXXXXXXXXXXXXXX# > C ( :.,.,.,.1.,.=.J d % + XXXXXXXXXXXXXXXXXXXXXXXXXX",
"XXXXXXXXXXXXXXXXXXXXXXXXXX+ % 0 P p.h.g.h.h.k.h.1.H , # X XXXXXXXXXXXXO @ , H 1.h.k.h.s.h.h.9.L e % + XXXXXXXXXXXXXXXXXXXXXXXXXX",
"XXXXXXXXXXXXXXXXXXXXXXXXXX+ % 0 / 7.r.g.g.g.k.k.2.H > @ X X XXXXXXXXX X + > H 2.k.k.g.f.g.g.7./ 0 % + XXXXXXXXXXXXXXXXXXXXXXXXXX",
"XXXXXXXXXXXXXXXXXXXXXXXXXX+ % 8 D [ 6.6.6.w.g.Q.2.H > @ X O X o o + X O @ > H 2.k.g.w.6.6.6.[ D 8 % + XXXXXXXXXXXXXXXXXXXXXXXXXX",
"XXXXXXXXXXXXXXXXXXXXXXXXXX+ $ 8 S ^ ] ] ] 4.e.h.2.K 9 % $ $ & % & * $ $ % w J 1.g.r.4.] ] ] ^ V 8 $ + XXXXXXXXXXXXXXXXXXXXXXXXXX",
"XXXXXXXXXXXXXXXXXXXXXXXXXX+ $ 7 V ~ ` ] ` ] 8.h.p.( v y r t t t t t r r y v W U.h.e.3.` ` ` ~ V 7 $ + XXXXXXXXXXXXXXXXXXXXXXXXXX",
"XXXXXXXXXXXXXXXXXXXXXXXXXX+ $ 7 V ~ ` ` ` ] e.h.Y.Z.v.x.l.l.x.z.l.z.z.l.R v.Z.Y.h.w.3.` ` ` ~ V 7 $ + XXXXXXXXXXXXXXXXXXXXXXXXXX",
"XXXXXXXXXXXXXXXXXXXXXXXXXX+ $ 8 S ` ] ` ] 4.w.h.T.W.F.F.D.D.D.D.D.D.D. XF.F.'.T.h.e.4.' ] ] ~ V 8 $ + XXXXXXXXXXXXXXXXXXXXXXXXXX",
"XXXXXXXXXXXXXXXXXXXXXXXXXX+ % 8 D ' 4.6.4.5.r.h.Q.].'..X X.X.X.X X.X.X.XG.'.].Q.h.8.5.4.6.4.' D 8 $ @ XXXXXXXXXXXXXXXXXXXXXXXXXX",
"XXXXXXXXXXXXXXXXXXXXXXXXXX+ % 0 L ,.r.r.0.r.h.h.Q.].P..X.X.X.X.X.X.X.X X X'.'./.h.h.f.e.r.r.q.L 0 % + XXXXXXXXXXXXXXXXXXXXXXXXXX",
"XXXXXXXXXXXXXXXXXXXXXXXXXXo % d P p.h.k.h.k.k.h.Q.'.P.G. XG.G.G. X.X X XG.P.R.Q.h.k.h.h.k.k.p.P d % + XXXXXXXXXXXXXXXXXXXXXXXXXX",
"XXXXXXXXXXXXXXXXXXXXXXXXXXX % d ( a.).).k.k.k./.T.R.I. XG.G.G.G. X XG. XG.I.R.T.k.k./.k._._.a.( g % + XXXXXXXXXXXXXXXXXXXXXXXXXX",
"XXXXXXXXXXXXXXXXXXXXXXXXXX+ % d W a.).)././.k./.Q.R.P. X X XG.G. X X X X XG.'.T./.k.k./._._.a.W d % o XXXXXXXXXXXXXXXXXXXXXXXXXX",
"XXXXXXXXXXXXXXXXXXXXXXXXXX+ % d W a.).)././.k./.T.'.I.G.G. XG.G. XP.G. XG.I.R.T./.k././.k.k.a.W d % X XXXXXXXXXXXXXXXXXXXXXXXXXX",
"XXXXXXXXXXXXXXXXXXXXXXXXX + % d W a.k.).k.k.k./.T.R.'.G.G.G.I.P.'.G.G.I.G.'.E.s.k.k./.k.).).a.W g % + O XXXXXXXXXXXXXXXXXXXXXXXX",
"XXXXXXXXXXXXXXXXXXXXXX@ + + % g W a._._.).).).k.Q.T.R.R.'.'.'.'.E.'.'.'.'.E.E./.).k.).).).).a.W d % + + @ XXXXXXXXXXXXXXXXXXXXXX",
"XXXXXXXXXXXXXXXXXXXX@ @ + + = d W a.)._.)./.k.k./.Q.T.T.T.T.T.T.T.T.T.E.T.T./.k././.k.k.).).a.( g % + + @ @ XXXXXXXXXXXXXXXXXXXX",
"XXXXXXXXXXXXXXXXXXXX@ $ + o % d ( a.k.h.p.a.a.s./././././.k.Q./././././.k.Q./.k.k.s.p.p.s./.a.( d % + + @ # XXXXXXXXXXXXXXXXXXXX",
"XXXXXXXXXXXXXXXXXXXXXX@ + + % g ( p.p.:.P W ,.a.k./.k.k.k.k.k.k.k.k.k.k.k.k.).k.p.,.W P -.p.a.( g % o X @ XXXXXXXXXXXXXXXXXXXXXX",
"XXXXXXXXXXXXXXXXXXXXXXXXO + % g ( p.,.J g i P 2.k.).k.k.k.k.k.k.k.k.Q.k.k./.)./.9.P j g J ,.p.( g % + + XXXXXXXXXXXXXXXXXXXXXXXX",
"XXXXXXXXXXXXXXXXXXXXXXXXXXO % g ( p.-.C , 9 K 2./.).k.Q./././.k.k./.k./././.).k.2.J d 8 C :.p.( g % + XXXXXXXXXXXXXXXXXXXXXXXXXX",
"XXXXXXXXXXXXXXXXXXXXXXXXO + % g ( a.1.K c x W p./.)./.k././.Q.k.k.Q./././././.k.9.P x j K 1.p.( g % + O XXXXXXXXXXXXXXXXXXXXXXXX",
"XXXXXXXXXXXXXXXXXXXX@ @ + + $ g ( a.a.,.( =.1.s.k.k.k.k.Q./././.k.k././././.)./.a.1.=.*.,.a.p.( g % + + @ @ XXXXXXXXXXXXXXXXXXXX",
"XXXXXXXXXXXXXXXXXXXX# @ + + % d ( a./.h.s.a.s.h./.Q./.).k.k./.k.k.Q./.k.h./.k.Q.h.s.a.a.h.k.p.( g % + + # @ XXXXXXXXXXXXXXXXXXXX",
"XXXXXXXXXXXXXXXXXXXX# @ + + % g / p.!.(.(.(.k._./.).k.k.k.k.k.).k.k.k.k.k.k.k.k.(.(.(.!.(.(.Y./ g % + + @ @ XXXXXXXXXXXXXXXXXXXX",
"XXXXXXXXXXXXXXXXXXXXXXXX+ + & e / L.!.!.!.!.!.(.k.).).).).).k.).).).)._._.).).).k.(.!.!.!.!.L./ u % + + XXXXXXXXXXXXXXXXXXXXXXXX",
"XXXXXXXXXXXXXXXXXXXXXXXXXX+ % e E H.L.L.L.L.L.Q.k./.Q.k.Q.Q.k.Q.k.Q.Q./.h././.T.^.^.L.L.L.L.q.E q % + XXXXXXXXXXXXXXXXXXXXXXXXXX",
"XXXXXXXXXXXXXXXXXXXXXXXXXX+ % q A ) _ _ _ ;.>.>.<.1.<.<.<.<.<.<.<.1.1.1.1.1.1.1.<.>._ _ m._ ) A q $ + XXXXXXXXXXXXXXXXXXXXXXXXXX",
"XXXXXXXXXXXXXXXXXXXXXXXXXXXXXX7 u u B k h c Z U T T T Y Y Y Y U U U Y Y T T T Y U F V u B B h d 7 XXXXXXXXXXXXXXXXXXXXXXXXXXXXXX",
"XXXXXXXXXXXXXXXXXXXXXXXXXXXXXXXX; ; ; ; ; > 5 f f f f f f f f 6 f f f f f f f f t 7 3 ; ; ; - - XXXXXXXXXXXXXXXXXXXXXXXXXXXXXXXX",
"XXXXXXXXXXXXXXXXXXXXXXXXXXXXXXXX; ; ; : : : 2 4 4 4 4 4 6 5 d d f f f 6 4 4 4 4 4 1 : : ; ; - 1 XXXXXXXXXXXXXXXXXXXXXXXXXXXXXXXX",
"XXXXXXXXXXXXXXXXXXXXXXXXXXXXXX4 y b n B c j w 4 < < < 4 d i p a H I l f 4 < < < 4 d j x v l l f 3 XXXXXXXXXXXXXXXXXXXXXXXXXXXXXX",
"XXXXXXXXXXXXXXXXXXXXXXXXXXo & r G b.m.V.;.W B t 4 < < 5 i s { } &.,.Q M 6 < < 4 6 v Q ;.V.N.v.G r & + XXXXXXXXXXXXXXXXXXXXXXXXXX",
"XXXXXXXXXXXXXXXXXXXXXXXXXXo & t l.D.I.~.T.2.Q l t 6 t g a {   X.y.d.,.T l 6 6 t c Q 1.T.E.I.D.l.t & + XXXXXXXXXXXXXXXXXXXXXXXXXX",
"XXXXXXXXXXXXXXXXXXXXXXXXXXo & t x.G.}.|.).a.,.Q I F I J ! | . O.#.@.&.%.T I F I Q ;.T.).|.}.G.x.t & + XXXXXXXXXXXXXXXXXXXXXXXXXX",
"XXXXXXXXXXXXXXXXXXXXXXXXXX+ & t z.G.{.`.`./.p.<.>.;.>.,.} X.. . ..X.+.&.,.;.;.;.1.p./.).|.{.F.z.t * + XXXXXXXXXXXXXXXXXXXXXXXXXX",
"XXXXXXXXXXXXXXXXXXXXXXXXXXo & t l.A.F.W.p.s.a.T.k.T.s.s.t.X.. . . ..+.t.s./.T.k.s.s.s.U.J.F.A.l.t & o XXXXXXXXXXXXXXXXXXXXXXXXXX",
"XXXXXXXXXXXXXXXXXXXXXXXXXXXX& 5 n l.x.Q W =.2.k._._.).k.u.@.o.o.o.#.@.u.j._._.k.s.9.-.W Q x.l.m r & XXXXXXXXXXXXXXXXXXXXXXXXXXXX",
"XXXXXXXXXXXXXXXXXXXXXXXXXXXXXX2 5 t t w d Z *.a.k.).k.k.j.j.u.i.i.i.u.j.k.k.)._.a.*.Z d w t t r 1 XXXXXXXXXXXXXXXXXXXXXXXXXXXXXX",
"XXXXXXXXXXXXXXXXXXXXXXXXXXXXXXXX& & $ $ = 9 K 2.k._._.k.s.s.s.s.s.s.s.T.k./._.Q.2.K w = $ $ % & XXXXXXXXXXXXXXXXXXXXXXXXXXXXXXXX",
"XXXXXXXXXXXXXXXXXXXXXXXXXXXXXXXXXXo X X @ > F Z.~.`.~.T.K.>.=.*.=.=.>.K.T.~.`.~.<.Z : @ X X o XXXXXXXXXXXXXXXXXXXXXXXXXXXXXXXXXX",
"XXXXXXXXXXXXXXXXXXXXXXXXXXXXXXXXXXXXX X @ : F C.].}.].J.B.U c j g c U B.J.[.}.].C.F : @ X X XXXXXXXXXXXXXXXXXXXXXXXXXXXXXXXXXXXX",
"XXXXXXXXXXXXXXXXXXXXXXXXXXXXXXXXXXXXXXO # 2 N N.P.P.P.S.z.y : % % : d R S.P..XP.N.G 2 @ X XXXXXXXXXXXXXXXXXXXXXXXXXXXXXXXXXXXXXX",
"XXXXXXXXXXXXXXXXXXXXXXXXXXXXXXXXXXXXXXXX# 2 n x.b.M.n.c.G 3 @ X X # 3 m c.b.M.b.x.n 1 $ XXXXXXXXXXXXXXXXXXXXXXXXXXXXXXXXXXXXXXXX",
"XXXXXXXXXXXXXXXXXXXXXXXXXXXXXXXXXXXXXXXXXX; t b n n n b r ; XXXXXXXX1 t b n n n b t ; XXXXXXXXXXXXXXXXXXXXXXXXXXXXXXXXXXXXXXXXXX",
"XXXXXXXXXXXXXXXXXXXXXXXXXXXXXXXXXXXXXXXXXXXX- ; 1 1 1 1 ; XXXXXXXXXXXX- ; 1 1 ; 1 - XXXXXXXXXXXXXXXXXXXXXXXXXXXXXXXXXXXXXXXXXXXX",
"XXXXXXXXXXXXXXXXXXXXXXXXXXXXXXXXXXXXXXXXXXXXXX@ @ # @ @ @ XXXXXXXXXXXX@ @ @ @ @ @ XXXXXXXXXXXXXXXXXXXXXXXXXXXXXXXXXXXXXXXXXXXXXX",
"XXXXXXXXXXXXXXXXXXXXXXXXXXXXXXXXXXXXXXXXXXXXXXXXX X X XXXXXXXXXXXXXXXXXXXXX o X XXXXXXXXXXXXXXXXXXXXXXXXXXXXXXXXXXXXXXXXXXXXXXXX",
"XXXXXXXXXXXXXXXXXXXXXXXXXXXXXXXXXXXXXXXXXXXXXXXXXXXXXXXXXXXXXXXXXXXXXXXXXXXXXXXXXXXXXXXXXXXXXXXXXXXXXXXXXXXXXXXXXXXXXXXXXXXXXXXX",
"XXXXXXXXXXXXXXXXXXXXXXXXXXXXXXXXXXXXXXXXXXXXXXXXXXXXXXXXXXXXXXXXXXXXXXXXXXXXXXXXXXXXXXXXXXXXXXXXXXXXXXXXXXXXXXXXXXXXXXXXXXXXXXXX",
"XXXXXXXXXXXXXXXXXXXXXXXXXXXXXXXXXXXXXXXXXXXXXXXXXXXXXXXXXXXXXXXXXXXXXXXXXXXXXXXXXXXXXXXXXXXXXXXXXXXXXXXXXXXXXXXXXXXXXXXXXXXXXXXX",
"XXXXXXXXXXXXXXXXXXXXXXXXXXXXXXXXXXXXXXXXXXXXXXXXXXXXXXXXXXXXXXXXXXXXXXXXXXXXXXXXXXXXXXXXXXXXXXXXXXXXXXXXXXXXXXXXXXXXXXXXXXXXXXXX",
"XXXXXXXXXXXXXXXXXXXXXXXXXXXXXXXXXXXXXXXXXXXXXXXXXXXXXXXXXXXXXXXXXXXXXXXXXXXXXXXXXXXXXXXXXXXXXXXXXXXXXXXXXXXXXXXXXXXXXXXXXXXXXXXX",
"XXXXXXXXXXXXXXXXXXXXXXXXXXXXXXXXXXXXXXXXXXXXXXXXXXXXXXXXXXXXXXXXXXXXXXXXXXXXXXXXXXXXXXXXXXXXXXXXXXXXXXXXXXXXXXXXXXXXXXXXXXXXXXXX"
};
