/* XPM */
static char *result[] = {
/* columns rows colors chars-per-pixel */
"64 64 135 2 ",
"   c #9A6E64",
".  c #9C7167",
"X  c #9D736A",
"o  c #9E7771",
"O  c #9F7871",
"+  c #A57B67",
"@  c #A37A6C",
"#  c #A57D70",
"$  c #AA8065",
"%  c #AA806D",
"&  c #B28663",
"*  c #B48966",
"=  c #B18568",
"-  c #B48A6B",
";  c #A68176",
":  c #AD8473",
">  c #AE8976",
",  c #A8867D",
"<  c #AF8D79",
"1  c #B28D7C",
"2  c #BC9677",
"3  c #BD9874",
"4  c #B2927C",
"5  c #BB967C",
"6  c #BC997B",
"7  c #C09D75",
"8  c #C09F7A",
"9  c #C2A077",
"0  c #C2A179",
"q  c #B59180",
"w  c #B59984",
"e  c #B99C84",
"r  c #B3958E",
"t  c #B6998F",
"y  c #BA9B8A",
"u  c #B39690",
"i  c #B69A90",
"p  c #B99D94",
"a  c #B99F98",
"s  c #BAA086",
"d  c #BDA28F",
"f  c #BBA191",
"g  c #BBA199",
"h  c #C29F84",
"j  c #C5A485",
"k  c #C9AD84",
"l  c #C4A389",
"z  c #C6A98D",
"x  c #CAAC8D",
"c  c #CCB28C",
"v  c #C3AB92",
"b  c #C9AD94",
"n  c #C2A99D",
"m  c #CBB594",
"M  c #CBB49D",
"N  c #CCBA98",
"B  c #D3B594",
"V  c #D4BE95",
"C  c #D0BA9D",
"Z  c #DBBF9B",
"A  c #C3ADA0",
"S  c #C6B2A9",
"D  c #C9B6AC",
"F  c #CCB9AD",
"G  c #D2BBA7",
"H  c #D2BEAB",
"J  c #CEBDB4",
"K  c #D1BFB3",
"L  c #D6C396",
"P  c #D4C19C",
"I  c #DCC19C",
"U  c #DAC99C",
"Y  c #DFC6A0",
"T  c #DDCBA4",
"R  c #D5C2AC",
"E  c #DBCFA9",
"W  c #DDD1A8",
"Q  c #D4C3B4",
"!  c #D8C6B3",
"~  c #D9C9B6",
"^  c #D1C2B8",
"/  c #D6C9BF",
"(  c #DDCFBE",
")  c #DFD1BF",
"_  c #E1C7A1",
"`  c #E6CCA4",
"'  c #E8CFA6",
"]  c #E2D6A6",
"[  c #E9D0A7",
"{  c #E2D5A9",
"}  c #EAD3A9",
"|  c #E4D9AE",
" . c #ECDAAE",
".. c #E5DEB2",
"X. c #EDDEB1",
"o. c #E7E1B4",
"O. c #EBE3B4",
"+. c #EEE7B8",
"@. c #EFEBB9",
"#. c #F1E3B5",
"$. c #F0E7B8",
"%. c #F2EDBC",
"&. c #F3F1BF",
"*. c #D7CBC2",
"=. c #D8CCC2",
"-. c #DDD1C2",
";. c #DFD7CC",
":. c #E2D7C5",
">. c #E3DBCD",
",. c #E5DFD4",
"<. c #F3E6C4",
"1. c #F3ECC3",
"2. c #F3E7CB",
"3. c #F3EBCC",
"4. c #F3F3C1",
"5. c #F7F8C4",
"6. c #F8FAC6",
"7. c #F4F3CC",
"8. c #F7F9CD",
"9. c #E5E0D4",
"0. c #E9E3D4",
"q. c #EAE7DB",
"w. c #ECE9DB",
"e. c #F3EDD4",
"r. c #F3EFDB",
"t. c #F4F3D4",
"y. c #F6F8D3",
"u. c #F3F4DC",
"i. c #F2F3E5",
"p. c #F5F7EA",
"a. c #F7FBEF",
"s. c #F9FCEF",
"d. c #F7FBF0",
"f. c #FBFFF4",
"g. c None",
/* pixels */
"g.g.g.g.g.g.g.g.g.g.g.g.g.g.g.g.g.g.g.g.g.g.g.g.g.g.g.g.g.g.g.g.g.g.g.g.g.g.g.g.g.g.g.g.g.g.g.g.g.g.g.g.g.g.g.g.g.g.g.g.g.g.g.g.",
"g.g.g.g.g.g.g.g.g.g.g.g.g.g.g.g.g.g.g.g.g.g.g.g.g.g.g.g.g.g.g.g.g.g.g.g.g.g.g.g.g.g.g.g.g.g.g.g.g.g.g.g.g.g.g.g.g.g.g.g.g.g.g.g.",
"g.g.g.g.g.g.g.g.g.g.g.g.g.g.g.g.g.g.g.g.g.g.g.g.g.g.g.g.g.g.g.g.g.g.g.g.g.g.g.g.g.g.g.g.g.g.g.g.g.g.g.g.g.g.g.g.g.g.g.g.g.g.g.g.",
"g.g.g.g.g.g.g.g.g.g.g.g.g.g.g.g.g.g.g.g.g.g.g.g.g.g.g.g.g.g.g.g.g.g.g.g.g.g.g.g.g.g.g.g.g.g.g.g.g.g.g.g.g.g.g.g.g.g.g.g.g.g.g.g.",
"g.g.g.g.g.g.g.g.g.g.g.g.g.g.g.g.g.g.g.g.g.g.g.g.g.a.a.a.a.a.a.a.a.a.a.a.a.d.a.g.g.g.g.g.g.g.g.g.g.g.g.g.g.g.g.g.g.g.g.g.g.g.g.g.",
"g.g.g.g.g.g.g.g.g.g.g.g.g.g.g.g.g.g.g.g.g.g.g.g.i.i.i.i.i.i.i.i.i.i.i.i.i.i.i.i.g.g.g.g.g.g.g.g.g.g.g.g.g.g.g.g.g.g.g.g.g.g.g.g.",
"g.g.g.g.g.g.g.g.g.g.g.g.g.g.g.g.g.g.g.g.g.g.g.g.0.0.0.0.0.0.0.0.0.0.0.0.0.0.0.0.g.g.g.g.g.g.g.g.g.g.g.g.g.g.g.g.g.g.g.g.g.g.g.g.",
"g.g.g.g.g.g.g.g.g.g.g.g.g.g.g.g.g.g.g.g.g.g.g.>.-.! ! ! ! ! ! ! ! ! ! Q Q ! ! :.>.g.g.g.g.g.g.g.g.g.g.g.g.g.g.g.g.g.g.g.g.g.g.g.",
"g.g.g.g.g.g.g.g.g.g.g.g.g.g.g.g.g.g.g.g.g.a.w.:.G b z l l l l z l z l l l l b G :.w.a.g.g.g.g.g.g.g.g.g.g.g.g.g.g.g.g.g.g.g.g.g.",
"g.g.g.g.g.g.g.g.g.g.g.g.g.g.g.g.g.g.g.g.a.i.0.~ b 6 - = - - - - - - - = = - e b ~ 0.i.a.g.g.g.g.g.g.g.g.g.g.g.g.g.g.g.g.g.g.g.g.",
"g.g.g.g.g.g.g.g.g.g.g.g.g.g.g.g.g.g.g.g.w.0.:.R b 2 - * = = - * - * - * * * 2 x K :.0.w.g.g.g.g.g.g.g.g.g.g.g.g.g.g.g.g.g.g.g.g.",
"g.g.g.g.g.g.g.g.g.g.g.g.g.g.g.g.g.g.g.>.) ~ R N c j 0 0 0 0 0 9 0 0 0 7 9 0 j x C H / | >.g.g.g.g.g.g.g.g.g.g.g.g.g.g.g.g.g.g.g.",
"g.g.g.g.g.g.g.g.g.g.g.g.g.g.g.g.g.a.w.-.G b z z m V L L L L L L L L L L L L V m x z b G =.r.d.g.g.g.g.g.g.g.g.g.g.g.g.g.g.g.g.g.",
"g.g.g.g.g.g.g.g.g.g.g.g.g.g.g.g.a.i.0.! b 6 2 k V { O.O.O.O.O.X.O.O.o.O.O.o.] L j 2 2 b ! 0.i.d.g.g.g.g.g.g.g.g.g.g.g.g.g.g.g.g.",
"g.g.g.g.g.g.g.g.g.g.g.g.g.g.g.g.w.0.:.R z 2 3 k U O.&.4.4.1.4.1.4.1.4.5.4.&.O.U k 7 2 z G -.9.q.g.g.g.g.g.g.g.g.g.g.g.g.g.g.g.g.",
"g.g.g.g.g.g.g.g.g.g.g.g.g.g.g.>.-.! R M k j k V ] @.4.6.5.7.4.6.7.y.y.y.8.5.@.] V k j z M F ^ *.>.g.g.g.g.g.g.g.g.g.g.g.g.g.g.g.",
"g.g.g.g.g.g.g.g.g.g.g.g.g.a.w.-.G b l x m V U ] o.@.4.5.1.1.1.t.t.y.u.t.y.4.&.O.] U N b f y a S *.q.a.g.g.g.g.g.g.g.g.g.g.g.g.g.",
"g.g.g.g.g.g.g.g.g.g.g.g.a.i.0.~ b 8 8 0 V [ O.@.4.4.4.4.1.1.2.3.r.i.u.t.t.4.&.@.@.O.W m e , , a ^ ,.i.a.g.g.g.g.g.g.g.g.g.g.g.g.",
"g.g.g.g.g.g.g.g.g.g.g.g.w.,.:.H l 2 7 k U O.&.5.4.4.4.1.1.<.<.3.e.u.u.t.7.4.4.4.5.&.o.P e ; ; t D -.,.q.g.g.g.g.g.g.g.g.g.g.g.g.",
"g.g.g.g.g.g.g.g.g.g.g.>.| *.Q C b j k V ] @.4.7.7.7.7.3.<.<.<.2.e.r.r.t.7.4.4.5.5.5.+.T z 5 1 r n F ^ =.>.g.g.g.g.g.g.g.g.g.g.g.",
"g.g.g.g.g.g.g.g.g.i.0.-.G b b c m L U W O.&.4.8.y.t.t.e.2.<.<.<.2.2.e.3.4.4.4.5.&.5.@.| Z b l y t t a S *.,.i.g.g.g.g.g.g.g.g.g.",
"g.g.g.g.g.g.g.g.a.i.0.~ b 6 2 j L W O.@.@.&.4.7.t.u.u.r.3.<.<.<.<.<.<.1.1.&.4.4.&.&.%.O.} _ B h 1 ; , a ^ ,.i.d.g.g.g.g.g.g.g.g.",
"g.g.g.g.g.g.g.g.d.p.9.! l - * 0 L o.4.5.5.4.7.t.u.i.i.r.e.2.<.<.<.<.<.1.4.1.&.4.4.&.&.$.#.} Z j : . @ u J ,.i.d.g.g.g.g.g.g.g.g.",
"g.g.g.g.g.g.g.g.d.p.q.! l = & 7 L O.4.8.y.7.t.u.i.i.i.r.r.e.3.2.1.<.%.%.&.4.&.4.4.&.%.%.#.} I j #   X r J q.p.f.g.g.g.g.g.g.g.g.",
"g.g.g.g.g.g.g.g.f.p.q.! l $ & 7 L O.&.8.y.u.u.u.i.i.i.i.u.r.e.e.3.1.1.&.&.&.&.4.4.4.&.$.#.} Z h @   X r ^ 0.a.f.g.g.g.g.g.g.g.g.",
"g.g.g.g.g.g.g.g.a.i.0.! l - - 0 L o.4.8.u.u.i.i.i.i.i.i.i.i.u.t.3.4.4.&.&.&.4.4.4.4.%.%.#.} Z j : . o r J >.i.a.g.g.g.g.g.g.g.g.",
"g.g.g.g.g.g.g.g.w.0.:.R z 2 3 k U O.4.y.t.u.i.i.i.i.p.i.i.i.u.t.7.4.4.&.&.4.&.4.4.4.%.$. .} I x 1 # ; t D -.,.q.g.g.g.g.g.g.g.g.",
"g.g.g.g.g.g.g.>.| ~ R C b k k L ] +.4.7.t.r.r.r.i.i.i.i.i.u.t.t.7.4.4.&.&.&.4.4.4.4.%.$.#.[ Y B h 5 q t n D ^ =.;.g.g.g.g.g.g.g.",
"g.g.g.g.g.i.0.( F b b x B L T ] O.@.4.7.3.3.e.r.i.i.i.i.t.t.7.7.4.4.&.&.&.4.&.4.4.4.&.$.X.} ` I B x l h t t g S *.9.i.g.g.g.g.g.",
"g.g.g.g.d.i.0.~ b q 2 j V { O.@.&.%.4.1.1.<.3.e.r.u.i.u.t.7.4.4.4.4.4.4.4.&.4.4.4.4.%.$.X.' ' ` _ Y B l 1 ; , a ^ 9.i.d.g.g.g.g.",
"g.g.g.g.s.i.0.Q l - - 8 L o.4.5.4.4.1.%.1.<.<.3.r.r.r.y.7.4.4.&.4.4.4.&.4.&.&.&.%.%.$.#. .} ' ' } ' G j : . o r J 9.i.d.g.g.g.g.",
"g.g.g.g.s.i.9.Q h # + 8 V O.4.6.6.4.&.&.%.1.1.3.t.t.y.t.7.&.&.&.&.4.&.4.&.4.4.%.%.$.#. . .' ' } } } _ j :   X r J 9.i.s.g.g.g.g.",
"g.g.g.g.d.i.;.^ w X $ 4 P o.&.5.5.4.&.1.@.1.4.1.3.7.7.7.4.4.&.&.&.4.4.&.4.&.&.@.+.X. .} } [ [ } } [ I z > . X r J ,.i.s.g.g.g.g.",
"g.g.g.g.d.i.9.J u ; $ 4 P o.&.5.4.4.4.4.4.4.4.4.4.4.4.4.4.4.&.4.4.&.&.4.4.4.@.+.X. .} [ [ [ ` } } [ Z j # . # u J ,.i.d.g.g.g.g.",
"g.g.g.g.d.i.,.^ u o X 4 d o.&.5.5.4.4.4.4.4.&.4.4.4.4.&.4.4.4.&.&.4.&.4.4.4.%.+.X.} [ ` ` ` [ [ } ' Z l > . o u K ,.i.d.g.g.g.g.",
"g.g.g.g.d.i.,.J r o X 4 P o.&.5.5.&.@.4.4.4.4.&.4.4.&.&.4.4.4.&.4.&.4.4.4.4.%.+. .} ` [ [ [ [ } } ' Z j # . o u K ,.i.d.g.g.g.g.",
"g.g.g.g.d.i.9.D r o X 4 g o.&.5.4.&.4.&.4.&.4.&.&.&.&.&.&.4.&.4.4.&.4.4.4.4.%.@. .} [ ` ' [ ' } } } I h > . o u K ,.i.s.g.g.g.g.",
"g.g.g.g.d.i.9.^ r o X 4 N ..&.5.5.4.&.4.&.4.&.4.4.&.&.4.4.&.4.&.&.4.&.4.4.4.%.+. .} [ ` ' ' ' [ } ` I l > . o u K ,.i.s.g.g.g.g.",
"g.g.g.g.d.i.9.J r o X 4 N ..&.5.5.&.4.&.4.&.4.&.4.&.4.&.&.4.&.4.4.&.4.&.&.%.$.O. .} ' ' ' ' ' } } ' I l # . # u J ,.i.f.g.g.g.g.",
"g.g.g.g.p.i.9.J r X ; 4 N ..&.4.5.4.&.4.&.4.&.4.&.4.&.4.4.&.4.4.4.4.&.%.%.$.#. .} [ ' ' ' ' [ [ } ' I h > . @ u J ,.i.f.g.g.g.g.",
"g.g.g.g.d.i.9.^ r o X 4 N ..&.5.5.&.4.&.4.&.4.4.4.&.4.&.4.&.&.4.4.4.&.%.+.X. .} } } ` [ ' ' [ } } ' Z l : . o r J ,.i.f.g.g.g.g.",
"g.g.g.g.s.i.9.J r o X 4 N ..&.5.5.&.&.4.&.4.4.&.&.4.&.4.&.4.4.4.4.4.%.+.X. .} [ } ` ` [ ' ' ' [ } ' I l : . o u J 9.i.d.g.g.g.g.",
"g.g.g.g.a.i.9.J r o X q N ..&.5.4.4.&.&.&.4.&.4.4.&.4.&.4.&.4.&.%.%.%.O. .} ' ' ` [ [ [ ' [ [ } } ' I l : . o u J 9.i.d.g.g.g.g.",
"g.g.g.g.a.i.,.J r o X < N ..4.5.6.4.&.4.4.&.4.&.&.4.&.4.4.4.&.%.%.$.O. .} ' ` ` ' ' [ ` ' ' ' } } ' I l :   X r J 9.i.d.g.g.g.g.",
"g.g.g.g.a.i.9.J r     < N o.4.6.5.4.4.&.&.4.&.4.&.4.&.4.4.4.%.%.$.X. .} } } ' ' ' ' ' ' ' [ [ }  .' _ j :   X r J 9.i.s.g.g.g.g.",
"g.g.g.g.s.i.9.J r o o q N ..4.5.5.4.&.4.4.&.4.&.4.&.4.4.4.4.%.$.X. .} } [ ` ' ' ' ' ' ' ' ' ' [ } ' I j : . o u J 9.i.s.g.g.g.g.",
"g.g.g.g.d.i.9.^ g q , w m E o.@.%.&.&.4.4.4.&.4.4.&.&.4.&.%.%.#. .} [ ' ' ` ' ' [ ' [ ' [ ' ' ` _ I B h 1 ; q a ^ 9.i.d.g.g.g.g.",
"g.g.g.g.g.i.9./ S g f f f N P W o.@.4.5.6.4.5.5.5.5.4.&.%.%.$.X. .} [ [ } } } } } [ } } } } ` I B b h h r u a S *.0.i.g.g.g.g.g.",
"g.g.g.g.g.g.g.;.=.^ J A p w s m E @.5.6.6.6.4.6.5.5.4.&.%.#. . .} } [ [ [ [ } } } } } } } } _ B h 1 1 h A D ^ *.;.g.g.g.g.g.g.g.",
"g.g.g.g.g.g.g.g.w.9.-.D t , > s P o.4.4.4.4.4.4.4.&.&.O.X. .} ' [ ' ' ' ' ' ' ' ' ' ' ' } ' I z 1 # # i D -.,.q.g.g.g.g.g.g.g.g.",
"g.g.g.g.g.g.g.g.a.i.,.K g , , w N E ..o.o.o.....o...W | T I I P I I I I I I I I I I I I Y Z B l q # q a ^ ,.i.d.g.g.g.g.g.g.g.g.",
"g.g.g.g.g.g.g.g.g.a.q.*.S g t t d m N N N N N N N N m m x l j j j j l l l l l x j j l l j j l h u u a S =.q.d.g.g.g.g.g.g.g.g.g.",
"g.g.g.g.g.g.g.g.g.g.g.>./ ^ D n d w 4 4 4 4 4 4 4 4 4 4 > : : : # # - # # : > # > # > # # ; 1 t A D K =.,.g.g.g.g.g.g.g.g.g.g.g.",
"g.g.g.g.g.g.g.g.g.g.g.g.q.9.-.F p , X . . X o X X X X X X X . X + . X @ . . X . . . . +   X ; i F =.,.q.g.g.g.g.g.g.g.g.g.g.g.g.",
"g.g.g.g.g.g.g.g.g.g.g.g.a.i.9.^ g , O X X O o o o o o o X o o o o o # # o o o o # X o X X o q g K ,.p.d.g.g.g.g.g.g.g.g.g.g.g.g.",
"g.g.g.g.g.g.g.g.g.g.g.g.g.d.q.=.S a u r r r r r u r r r u u u r u u u u u u u u u u u u r u p S =.w.d.g.g.g.g.g.g.g.g.g.g.g.g.g.",
"g.g.g.g.g.g.g.g.g.g.g.g.g.g.g.;.*.K J J J J J J J J J K J K K K J J J J J J K J J J J J J J ^ *.;.g.g.g.g.g.g.g.g.g.g.g.g.g.g.g.",
"g.g.g.g.g.g.g.g.g.g.g.g.g.g.g.g.9.0.9.,.,.,.9.9.,.,.,.,.,.,.,.,.,.,.,.,.,.,.,.,.9.0.9.9.9.9.9.0.g.g.g.g.g.g.g.g.g.g.g.g.g.g.g.g.",
"g.g.g.g.g.g.g.g.g.g.g.g.g.g.g.g.i.i.i.i.i.i.i.i.i.i.i.i.i.i.i.i.i.i.i.i.i.i.i.i.i.i.i.i.i.i.i.i.g.g.g.g.g.g.g.g.g.g.g.g.g.g.g.g.",
"g.g.g.g.g.g.g.g.g.g.g.g.g.g.g.g.g.d.d.s.d.d.d.d.d.d.f.d.d.d.f.f.d.d.d.d.d.d.d.d.d.d.d.d.d.d.d.g.g.g.g.g.g.g.g.g.g.g.g.g.g.g.g.g.",
"g.g.g.g.g.g.g.g.g.g.g.g.g.g.g.g.g.g.g.g.g.g.g.g.g.g.g.g.g.g.g.g.g.g.g.g.g.g.g.g.g.g.g.g.g.g.g.g.g.g.g.g.g.g.g.g.g.g.g.g.g.g.g.g.",
"g.g.g.g.g.g.g.g.g.g.g.g.g.g.g.g.g.g.g.g.g.g.g.g.g.g.g.g.g.g.g.g.g.g.g.g.g.g.g.g.g.g.g.g.g.g.g.g.g.g.g.g.g.g.g.g.g.g.g.g.g.g.g.g.",
"g.g.g.g.g.g.g.g.g.g.g.g.g.g.g.g.g.g.g.g.g.g.g.g.g.g.g.g.g.g.g.g.g.g.g.g.g.g.g.g.g.g.g.g.g.g.g.g.g.g.g.g.g.g.g.g.g.g.g.g.g.g.g.g.",
"g.g.g.g.g.g.g.g.g.g.g.g.g.g.g.g.g.g.g.g.g.g.g.g.g.g.g.g.g.g.g.g.g.g.g.g.g.g.g.g.g.g.g.g.g.g.g.g.g.g.g.g.g.g.g.g.g.g.g.g.g.g.g.g."
};
