/* XPM */
static char *result[] = {
/* columns rows colors chars-per-pixel */
"64 64 145 2 ",
"   c #754B5F",
".  c #7C525F",
"X  c #647F5C",
"o  c #6B795C",
"O  c #797A5C",
"+  c #6D4663",
"@  c #704760",
"#  c #754C61",
"$  c #794F60",
"%  c #7D5561",
"&  c #84575E",
"*  c #865A5D",
"=  c #8C5E5C",
"-  c #8F615D",
";  c #91635D",
":  c #976A5F",
">  c #996B5C",
",  c #837958",
"<  c #A6765A",
"1  c #AD7D5C",
"2  c #805762",
"3  c #865B60",
"4  c #8C6263",
"5  c #916663",
"6  c #936963",
"7  c #9A6D63",
"8  c #9E7261",
"9  c #A27765",
"0  c #A67B64",
"q  c #AA7D65",
"w  c #A57B68",
"e  c #A97F6C",
"r  c #5F805C",
"t  c #63805C",
"y  c #7D9A5F",
"u  c #76A257",
"i  c #76A058",
"p  c #7CA459",
"a  c #7FA859",
"s  c #8A8C5A",
"d  c #978556",
"f  c #998756",
"g  c #9E8B5B",
"h  c #899557",
"j  c #809D59",
"k  c #9E9359",
"l  c #919A5F",
"z  c #A78159",
"x  c #AB835B",
"c  c #A38A5A",
"v  c #B4855F",
"b  c #A99A5D",
"n  c #B0905F",
"m  c #83A55D",
"M  c #83A95B",
"N  c #8BAF5C",
"B  c #95A45D",
"V  c #8EB35E",
"C  c #92B55E",
"Z  c #9CB35F",
"A  c #96B85F",
"S  c #AE8266",
"D  c #AE8A63",
"F  c #AB816D",
"G  c #B28564",
"H  c #B48965",
"J  c #BA8E65",
"K  c #B18769",
"L  c #B68C68",
"P  c #B98F6A",
"I  c #BE9267",
"U  c #B49A64",
"Y  c #BD926A",
"T  c #B28971",
"R  c #BA9276",
"E  c #BF9972",
"W  c #BE9778",
"Q  c #BF9879",
"!  c #91A765",
"~  c #9BAA69",
"^  c #93B561",
"/  c #97B860",
"(  c #9CBC61",
")  c #A6A460",
"_  c #A8A360",
"`  c #A5AC6F",
"'  c #B8AD68",
"]  c #A4B761",
"[  c #A2BE63",
"{  c #AFBE66",
"}  c #B8B266",
"|  c #AFAF73",
" . c #B5AF77",
".. c #B7AF78",
"X. c #BBB27A",
"o. c #C29666",
"O. c #C09569",
"+. c #C59B6C",
"@. c #C99F6D",
"#. c #C19574",
"$. c #C59E75",
"%. c #C89F70",
"&. c #C29B7B",
"*. c #CAA06D",
"=. c #C9A37E",
"-. c #D1AA79",
";. c #C4B37C",
":. c #A5C364",
">. c #AAC666",
",. c #ADC867",
"<. c #A6C368",
"1. c #ADC768",
"2. c #AFC968",
"3. c #B3C26A",
"4. c #B3CC6A",
"5. c #BACE6D",
"6. c #B7D06E",
"7. c #BFD36F",
"8. c #C1D470",
"9. c #C6DA73",
"0. c #C8A781",
"q. c #CCAA83",
"w. c #D2AE84",
"e. c #D2AD8A",
"r. c #CEB683",
"t. c #D2B585",
"y. c #DAB687",
"u. c #DBB589",
"i. c #DDBA8A",
"p. c #D6B490",
"a. c #DEBE92",
"s. c #E2BD8E",
"d. c #DFC39B",
"f. c #E2C59B",
"g. c #E4C99D",
"h. c #E2C7A0",
"j. c #E5CBA2",
"k. c #E7D2AE",
"l. c #EAD3AC",
"z. c #EEDAB4",
"x. c #EFDDB9",
"c. c #F0DDB6",
"v. c #F0DFBA",
"b. c #F2E2BE",
"n. c None",
/* pixels */
"n.n.n.n.n.n.n.n.n.n.n.n.n.n.n.n.n.n.n.n.n.n.n.n.n.n.n.n.; - ; - ; - ; ; n.n.n.n.n.n.n.n.n.n.n.n.n.n.n.n.n.n.n.n.n.n.n.n.n.n.n.n.",
"n.n.n.n.n.n.n.n.n.n.n.n.n.n.n.n.n.n.n.n.n.n.n.n.= = = 6 R &.Q Q Q Q $.R 6 = = = n.n.n.n.n.n.n.n.n.n.n.n.n.n.n.n.n.n.n.n.n.n.n.n.",
"n.n.n.n.n.n.n.n.n.n.n.n.n.n.n.n.n.n.n.n.n.n.n.n.e e e K y.s.s.s.s.s.f.u.T e F e n.n.n.n.n.n.n.n.n.n.n.n.n.n.n.n.n.n.n.n.n.n.n.n.",
"n.n.n.n.n.n.n.n.n.n.n.n.n.n.n.n.n.n.n.n.7 7 7 w w.i.i.i.r.r.r.r.r.r.;.t.y.i.i.w.w 7 7 7 n.n.n.n.n.n.n.n.n.n.n.n.n.n.n.n.n.n.n.n.",
"n.n.n.n.n.n.n.n.n.n.n.n.n.n.n.n.; ; = 7 =.w.q.t.i.i.s.t.! m M m m m m ! t.s.i.i.t.w.w.0.7 = - ; n.n.n.n.n.n.n.n.n.n.n.n.n.n.n.n.",
"n.n.n.n.n.n.n.n.n.n.n.n.= = = 6 R &.W &.i.s.s.i.` ~ ~ ~ :./ C C ^ C / [ ~ ~ ~ ` y.s.s.u.&.W &.R 6 = = = n.n.n.n.n.n.n.n.n.n.n.n.",
"n.n.n.n.n.n.n.n.n.n.n.n.e e e K y.s.s.i.X...X.| N M y a 5.4.<.:.:.:.4.5.M u p N | ....X.i.s.s.y.T e F e n.n.n.n.n.n.n.n.n.n.n.n.",
"n.n.n.n.n.n.n.n.7 7 7 w w.i.i.i.t.r.t.;.m p m m ( / a a 4.>.[ [ :.[ 1.4.M M A ( N M p m ;.t.r.t.y.i.i.w.w 7 7 7 n.n.n.n.n.n.n.n.",
"n.n.n.n.n.n.n.7 0.w.w.w.i.i.i.r.! m m m p ( 5.4.:.A M M :.A V C V V ( ( m M A :.4.5.[ y m m m ! t.i.i.y.w.w.w.=.7 n.n.n.n.n.n.n.",
"n.n.n.n.n.n.n.7 w.s.s.y.` ~ ~ ~ C C V M p <.9.7.>.A M p ,.<.A ( ( ( :.1.M M A :.8.9.<.u M V A C ~ ~ ~ ` y.s.s.t.7 n.n.n.n.n.n.n.",
"n.n.n.n.n.n.n.7 =.;.X.| m u p C ,.>.( N p ( 5.4.:.A M M 5.4.:.:.<.:.5.5.M M A :.4.5.( p N A >.>.^ p u M | X.;.=.7 n.n.n.n.n.n.n.",
"n.n.n.n.n.n.n.: P l u M V p ^ 7.8.2.A N p ^ >.>.:.A M M 4.,.( :.:.( >.4.M M A [ <.>.A p V A 4.8.7.^ p N M u l L : n.n.n.n.n.n.n.",
"n.n.n.n.n.n.n.n.: O y ( V p ^ 8.7.1.( N p :.7.5.:.A M p :.( V V V V A :.M M A :.6.8.[ p N ( ,.8.7.^ p V ( y O : n.n.n.n.n.n.n.n.",
"n.n.n.n.n.n.n.n.n.o y :.V p N ,.1.>.( V p :.8.7.>.A M M ,.:.A ( ( A :.,.M M A >.7.9.>.u N ( >.1.1.V p V :.y o n.n.n.n.n.n.n.n.n.",
"n.n.n.n.n.n.n.n.n.t y [ C p N 1.1.>.( N p ( 5.4.[ A M M 6.4.:.:.:.:.4.5.M M A :.2.5.( p N ( :.1.1.N p V [ y t n.n.n.n.n.n.n.n.n.",
"n.n.n.n.n.n.n.n.n.X y [ V p ^ 8.8.1.( N p ^ >.>.:.A M m 3.{ ] ] ] ] 1.3.p M A :.>.>.A p N ( 4.7.7.^ p C [ y X n.n.n.n.n.n.n.n.n.",
"n.n.n.n.n.n.n.n.n.X y [ C p ^ 7.7.1.A C p :.7.6.:.A M j c x x x x z x c p M A <.6.7.:.p V A 1.8.8.^ p V :.y X n.n.n.n.n.n.n.n.n.",
"n.n.n.n.n.n.n.n.n.X y [ C p N 1.,.>.A N p <.9.5.b c f g q.e.e.e.e.e.e.0.g f c b 8.9.<.u N ( >.1.1.V p V [ y X n.n.n.n.n.n.n.n.n.",
"n.n.n.n.n.n.n.n.n.X y [ V p V 1.1.>.( N h _ } ' #.#.#.&.l.v.z.c.c.c.c.l.=.#.#.E ' } ) h N A >.1.>.N p C [ y X n.n.n.n.n.n.n.n.n.",
"n.n.n.n.n.n.n.n.n.X y [ V p ^ 7.5.{ Z B D G G Y g.l.l.l.x.v.v.v.v.v.v.z.l.l.l.f.P G G H B Z { 5.7.^ p C [ y X n.n.n.n.n.n.n.n.n.",
"n.n.n.n.n.n.n.n.n.X y [ C p ^ 5.D z z D a.h.d.h.v.b.b.v.f.s.a.i.a.a.s.f.x.b.b.b.f.f.f.p.D z x n 5.^ a V :.y X n.n.n.n.n.n.n.n.n.",
"n.n.n.n.n.n.n.n.n.X y [ k d c U q.e.e.p.z.x.b.x.j.g.j.g.i.i.s.s.s.i.i.i.g.j.g.j.v.b.b.x.p.w.e.q.U g f c ( y r n.n.n.n.n.n.n.n.n.",
"n.n.n.n.n.n.n.n.n., s _ E #.#.&.l.b.z.z.l.l.k.l.s.i.i.y.=.W #.&.&.&.&.&.y.i.i.s.l.l.l.k.z.z.c.l.&.#.#.#._ s , n.n.n.n.n.n.n.n.n.",
"n.n.n.n.n.n.n.n.G G G P f.l.l.l.c.v.v.z.f.i.i.y.t.q.w.=.7 - - ; = ; - 7 =.w.w.w.y.i.i.f.z.v.c.c.l.l.l.h.Y G G G n.n.n.n.n.n.n.n.",
"n.n.n.n.n.n.n.G a.f.d.h.x.b.b.v.f.i.f.i.i.y.i.w.w 7 7 7 ; - ; - ; - ; ; 7 7 7 9 w.i.i.i.a.a.f.f.x.b.b.b.h.d.d.a.G n.n.n.n.n.n.n.",
"n.n.n.n.n.n.n.H k.b.b.x.j.g.j.g.s.i.i.y.L F F e 5 = - = ; - - ; - ; ; ; = - - ; q F e T y.s.i.s.g.j.j.j.x.b.b.k.H n.n.n.n.n.n.n.",
"n.n.n.n.n.n.n.q h.z.k.l.s.i.i.y.&.&.&.R ; = = ; ; ; - - - - - - - ; ; ; - - - - - = = ; R &.&.&.y.i.i.i.l.l.z.f.q n.n.n.n.n.n.n.",
"n.n.n.n.n.n.n.7 w.i.i.i.w.w.w.=.8 ; ; ; ; > ; ; ; ; ; ; : ; ; : ; ; ; ; ; : ; ; ; > ; ; ; ; ; > =.w.w.w.i.i.i.w.7 n.n.n.n.n.n.n.",
"n.n.n.n.n.n.n.7 w.i.i.w.w 7 7 7 < < < < < < < < < < < < < < < < < < < < < < < < < < < < < < < < 7 7 7 w t.i.i.w.7 n.n.n.n.n.n.n.",
"n.n.n.n.n.n.n.n.e e F F < q K G J J J J J I J J J o.J J J o.J J J J o.J o.J J J J I J I J J J J G G q 0 F F F e n.n.n.n.n.n.n.n.",
"n.n.n.n.n.n.n.n.= = * = H +.@.+.@.+.+.+.@.+.+.+.+.+.+.+.+.+.+.+.+.+.+.+.+.+.+.+.+.+.@.+.+.+.+.@.+.+.+.G - . = = n.n.n.n.n.n.n.n.",
"n.n.n.n.n.n.n.n.n.n.n.2 L O.O.O.O.O.O.O.O.O.O.O.O.O.O.O.O.O.O.O.O.O.O.O.O.O.O.o.O.O.O.O.O.O.O.O.O.O.+.H . n.n.n.n.n.n.n.n.n.n.n.",
"n.n.n.n.n.n.n.n.n.n.n.. < 1 1 1 1 1 1 1 1 1 1 1 1 1 1 1 1 1 1 1 1 1 1 1 1 1 1 1 1 1 1 1 1 1 1 1 1 1 1 < . n.n.n.n.n.n.n.n.n.n.n.",
"n.n.n.n.n.n.n.n.n.n.n.% S I J J J J J J J J J H J J J J J J J J J J J J J J J J L L J J J J L J J J J H % n.n.n.n.n.n.n.n.n.n.n.",
"n.n.n.n.n.n.n.n.n.n.n.2 Y +.+.+.@.+.+.@.+.+.+.+.+.+.+.+.+.+.+.#.+.+.+.+.+.+.+.+.+.+.+.+.@.%.@.@.@.#.@.J 2 n.n.n.n.n.n.n.n.n.n.n.",
"n.n.n.n.n.n.n.n.n.n.n.% Y +.+.+.Y P P P +.+.+.+.+.+.+.+.+.+.+.+.+.+.+.+.+.+.+.+.+.+.+.+.J J P P +.+.+.P 2 n.n.n.n.n.n.n.n.n.n.n.",
"n.n.n.n.n.n.n.n.n.n.n.2 Y +.+.Y 3 % % 3 Y +.+.+.+.O.+.+.+.+.+.+.+.+.+.+.+.+.+.+.+.O.+.Y 3 % 2 3 Y +.+.Y % n.n.n.n.n.n.n.n.n.n.n.",
"n.n.n.n.n.n.n.n.n.n.n.% 1 v 0 4 3 3 3 3 5 0 v v v v v S 6 5 5 5 5 5 5 6 1 G G 1 v v 0 5 3 & 3 3 5 0 v 0 % n.n.n.n.n.n.n.n.n.n.n.",
"n.n.n.n.n.n.n.n.n.n.n.% q v >   = ; ; -   > v v G G < ; & $ . . $ $ $ & ; 1 v v v v 7 $ - ; ; =   > v 1 . n.n.n.n.n.n.n.n.n.n.n.",
"n.n.n.n.n.n.n.n.n.n.n.2 Y *.w $ 3 ; ; = . q @.+.+.I 0 . = - - ; ; ; - = 2 9 O.+.+.@.w $ = ; ; = . w *.Y 2 n.n.n.n.n.n.n.n.n.n.n.",
"n.n.n.n.n.n.n.n.n.n.n.2 P @.w . - ; ; = $ w @.+.+.7 2 = ; ; 5 - - - ; - = 2 7 +.+.@.w $ = ; ; 4 . w *.P 2 n.n.n.n.n.n.n.n.n.n.n.",
"n.n.n.n.n.n.n.n.n.n.n.2 Y *.w % q H K q % w @.+.+.5 % - - ; = ; ; ; - ; - & 5 #.+.@.w % 0 G G q % w *.Y 2 n.n.n.n.n.n.n.n.n.n.n.",
"n.n.n.n.n.n.n.n.n.n.n.% G I 0 : $.-.-.$.5 0 J J J 4 $ ; ; ; - ; - ; ; ; ; $ 4 L J J 0 ; $.-.-.%.4 < I S % n.n.n.n.n.n.n.n.n.n.n.",
"n.n.n.n.n.n.n.n.n.n.n.% < 1 < G w.u.u.-.v 1 1 1 1 * % ; - ; ; - ; - ; - ; $ = 1 1 1 1 G w.y.y.w.G 1 v < . n.n.n.n.n.n.n.n.n.n.n.",
"n.n.n.n.n.n.n.n.n.n.n.% L O.O.O.%.%.%.%.O.O.O.O.O.5 % ; - ; ; ; ; - ; ; ; $ 5 O.O.O.O.O.+.*.+.%.+.I +.H % n.n.n.n.n.n.n.n.n.n.n.",
"n.n.n.n.n.n.n.n.n.n.n.2 Y @.+.+.+.O.+.O.+.+.+.+.+.5 . = - - - - - - - - - & 6 +.+.+.+.+.+.+.+.+.+.+.+.Y 2 n.n.n.n.n.n.n.n.n.n.n.",
"n.n.n.n.n.n.n.n.n.n.n.2 Y @.+.+.+.+.+.@.+.@.+.+.+.6 . ; > > > > > > > > - . 5 +.@.+.@.+.+.+.+.+.+.+.+.Y 2 n.n.n.n.n.n.n.n.n.n.n.",
"n.n.n.n.n.n.n.n.n.n.n.2 K P P P P P P P P P P J P 4 . > < 1 1 1 1 1 1 < : . 4 P P P J P P P P P Y P Y K 2 n.n.n.n.n.n.n.n.n.n.n.",
"n.n.n.n.n.n.n.n.n.n.n.n.% 2 2 2 % 2 2 % 2 2 2 2 2 $ * 1 I O.O.O.O.O.O.I < * $ 2 2 2 2 2 2 % 2 2 % % 2 % n.n.n.n.n.n.n.n.n.n.n.n.",
"n.n.n.n.n.n.n.n.n.n.n.n.n.n.+ % : 8 4   + n.n.n.n.n.* 8 I O.I J J J O.O.< 3 n.n.n.n.n.+ @ - 8 6 $ + n.n.n.n.n.n.n.n.n.n.n.n.n.n.",
"n.n.n.n.n.n.n.n.n.n.n.n.n.n.n.% H I 0 # n.n.n.n.n.n.n.: Y O.J I I J O.Y 6 n.n.n.n.n.n.n.# 0 +.D 2 n.n.n.n.n.n.n.n.n.n.n.n.n.n.n.",
"n.n.n.n.n.n.n.n.n.n.n.n.n.n.n.2 Y *.w # n.n.n.n.n.n.n.6 Y +.O.o.+.O.+.Y 6 n.n.n.n.n.n.n.# w *.L 2 n.n.n.n.n.n.n.n.n.n.n.n.n.n.n.",
"n.n.n.n.n.n.n.n.n.n.n.n.n.n.n.2 Y +.w # n.n.n.n.n.n.n.6 I O.v J J J I Y : n.n.n.n.n.n.n.# w *.P 2 n.n.n.n.n.n.n.n.n.n.n.n.n.n.n.",
"n.n.n.n.n.n.n.n.n.n.n.n.n.n.n.2 L *.w # n.n.n.n.n.n.n.> Y +.O.I I I O.Y : n.n.n.n.n.n.n.# w *.Y 2 n.n.n.n.n.n.n.n.n.n.n.n.n.n.n.",
"n.n.n.n.n.n.n.n.n.n.n.n.n.n.n.2 L *.w # n.n.n.n.n.n.n.6 Y O.O.O.I I +.Y > n.n.n.n.n.n.n.# w *.P 2 n.n.n.n.n.n.n.n.n.n.n.n.n.n.n.",
"n.n.n.n.n.n.n.n.n.n.n.n.n.n.n.2 Y *.e # n.n.n.n.n.n.n.> Y I J H J J I Y 6 n.n.n.n.n.n.n.# w %.P 2 n.n.n.n.n.n.n.n.n.n.n.n.n.n.n.",
"n.n.n.n.n.n.n.n.n.n.n.n.n.n.n.2 Y +.w # n.n.n.n.n.n.n.: Y +.+.O.O.O.+.Y : n.n.n.n.n.n.n.# w *.Y 2 n.n.n.n.n.n.n.n.n.n.n.n.n.n.n.",
"n.n.n.n.n.n.n.n.n.n.n.n.n.n.n.% 4 5 4 n.n.n.n.n.n.n.n.: Y O.J J I J O.Y : n.n.n.n.n.n.n.n.4 5 5 % n.n.n.n.n.n.n.n.n.n.n.n.n.n.n.",
"n.n.n.n.n.n.n.n.n.n.n.n.n.n.n.n.@   n.n.n.n.n.n.n.n.n.: Y O.J J J J O.Y : n.n.n.n.n.n.n.n.n.@ @ n.n.n.n.n.n.n.n.n.n.n.n.n.n.n.n.",
"n.n.n.n.n.n.n.n.n.n.n.n.n.n.n.n.n.n.n.n.n.n.n.n.n.n.n.: I +.O.O.+.O.+.Y : n.n.n.n.n.n.n.n.n.n.n.n.n.n.n.n.n.n.n.n.n.n.n.n.n.n.n.",
"n.n.n.n.n.n.n.n.n.n.n.n.n.n.n.n.n.n.n.n.n.n.n.n.n.n.n.: Y O.J J H J I I : n.n.n.n.n.n.n.n.n.n.n.n.n.n.n.n.n.n.n.n.n.n.n.n.n.n.n.",
"n.n.n.n.n.n.n.n.n.n.n.n.n.n.n.n.n.n.n.n.n.n.n.n.n.n.n.: Y O.O.O.O.O.+.I : n.n.n.n.n.n.n.n.n.n.n.n.n.n.n.n.n.n.n.n.n.n.n.n.n.n.n.",
"n.n.n.n.n.n.n.n.n.n.n.n.n.n.n.n.n.n.n.n.n.n.n.n.n.n.n.5 S K K K G G G F 6 n.n.n.n.n.n.n.n.n.n.n.n.n.n.n.n.n.n.n.n.n.n.n.n.n.n.n.",
"n.n.n.n.n.n.n.n.n.n.n.n.n.n.n.n.n.n.n.n.n.n.n.n.n.n.n.n.- ; - ; - ; ; - n.n.n.n.n.n.n.n.n.n.n.n.n.n.n.n.n.n.n.n.n.n.n.n.n.n.n.n."
};
