/* XPM */
static char *result[] = {
/* columns rows colors chars-per-pixel */
"64 64 50 1 ",
"  c #C0D470",
". c #C1D470",
"X c #BED36F",
"o c #BAD06D",
"O c #BBD16D",
"+ c #BFD36F",
"@ c #C1D570",
"# c #BBD16E",
"$ c #AFC968",
"% c #B5CD6B",
"& c #ADC867",
"* c #B0C968",
"= c #AEC867",
"- c #B9CF6D",
"; c #A9C565",
": c #A9C566",
"> c #B9D06D",
", c #C1D571",
"< c #C0D46F",
"1 c #BFD46F",
"2 c #C3D674",
"3 c #C8D97C",
"4 c #C8D97B",
"5 c #C2D573",
"6 c #D8E494",
"7 c #D8E392",
"8 c #C7D879",
"9 c #D8E493",
"0 c #DBE597",
"q c #CFDE86",
"w c #C7D97B",
"e c #D0DE87",
"r c #BFD36E",
"t c #C7D87A",
"y c #DBE697",
"u c #D7E392",
"i c #DAE596",
"p c #CBDB7F",
"a c #E0E99E",
"s c #CADA7E",
"d c #BED36E",
"f c #BED36D",
"g c #CADB7F",
"h c #C6D879",
"j c #C1D572",
"k c #D7E391",
"l c #C2D572",
"z c #C7D97A",
"x c #C2D674",
"c c white",
/* pixels */
"                                                                ",
"                                                                ",
"                                                                ",
"                                                                ",
"                        ..                        ..  ..        ",
"                       XooX                      XoO++OoX       ",
"                      @#$$o.                    .o$$##$$o.      ",
"                     +#%&$o.                    .o$&%%&$o.      ",
"                     #*=%#X                      X#%&&%#X       ",
"                    .-;:>,.                       @#$$#@        ",
"        ..          .-;;-@.                        XooX         ",
"       XooX          O$$O                           ..          ",
"      .o$$#@         X##X                                       ",
"      .o$&%#+         ..                                        ",
"       X#%=*#       ..                                          ",
"       .,>:;-.     XooX                                         ",
"       .@-;;-.    @#$$o.                                        ",
"         O$$O    +#%&$o.                                        ",
"         X##X    #*=%#X               ..  ..                    ",
"          ..    .-;:>,.              XoO++OoX                   ",
"                .-;;-@.             .o$$##$$o.                  ",
"                 O$$O               .o$&%%&$o.                  ",
"                 X##X                X#%&&%#X                   ",
"                  ..                  @#$$#@                    ",
"                                       XooX                     ",
"                                        ..                      ",
"                                                                ",
"                                                                ",
"                                                                ",
"                                                                ",
"                                                                ",
"                                                                ",
"                                                                ",
"                                                                ",
"                                                                ",
"                                                      <<  <<    ",
"                                                      11  11    ",
"                                                     23455432   ",
"                                                   <1367887631< ",
"              <<                                   <1490qq0941< ",
"              11                                     5we00ew5   ",
"            15432                                    1rw99wr1   ",
"           1rw9631<                                   154451    ",
"      <<   5tey941<                                     11      ",
"      11 <14uiew5                                       <<      ",
"     2345rrpaasd+                                               ",
"   <1369wfdgaasr1                                               ",
"   <149yehjgaag+1   <<                                          ",
"     5weiktsaag+1   11                                          ",
"     +dsaastu741<  23451                <<  <<                  ",
"     1rsaaglz4x  <1369wr1               11  11                  ",
"     1+gaagrr1   <149yet5              23455432                 ",
"     1+gaagrr<     5weiu41<          <1367887631<               ",
"     <147741<      +dsaag+1          <1490qq0941<               ",
"       x44x        1rsaag+1            5we00ew5                 ",
"        11         1+gaag+1            1rw99wr1                 ",
"        <<         1+gaag+1             154451                  ",
"                   <147741<               11                    ",
"                     x44x                 <<                    ",
"                      11                                        ",
"                      <<                                        ",
"                                                                ",
"                                                                ",
"                                                                "
};
