/* XPM */
static char *_4f2fedba6ef43409eeb780fb0d6991aaM1hp5ZC8hJwOZV5[] = {
/* columns rows colors chars-per-pixel */
"64 64 157 2 ",
"   c None",
".  c #BEB47F",
"X  c #C9BF7E",
"o  c #CFC57E",
"O  c #D0C67A",
"+  c #D3CA7F",
"@  c #E6DD79",
"#  c #EFE676",
"$  c #ECE378",
"%  c #F5EC76",
"&  c #4E3F8E",
"*  c #53448F",
"=  c #56488F",
"-  c #5C4D8D",
";  c #554690",
":  c #564890",
">  c #5B4D92",
",  c #5F5193",
"<  c #6B5D8E",
"1  c #635594",
"2  c #675A95",
"3  c #6A5D96",
"4  c #675A9A",
"5  c #6B5E9B",
"6  c #73658D",
"7  c #6D6197",
"8  c #6F629B",
"9  c #736694",
"0  c #7A6E93",
"q  c #71659B",
"w  c #74699A",
"e  c #796D9C",
"r  c #7C719C",
"t  c #6D64A9",
"y  c #7366A0",
"u  c #766AA2",
"i  c #796DA5",
"p  c #7067A9",
"a  c #746BAA",
"s  c #7E74A4",
"d  c #7E75AB",
"f  c #8B7E86",
"g  c #81779C",
"h  c #847A9E",
"j  c #857CA2",
"k  c #8376AA",
"l  c #847BAC",
"z  c #8A7FAE",
"x  c #998D85",
"c  c #91858C",
"v  c #9D9082",
"b  c #8A809F",
"n  c #9E9594",
"m  c #A39787",
"M  c #AAA08C",
"N  c #B8AE86",
"B  c #ABA290",
"V  c #8C83A1",
"C  c #8A82AE",
"Z  c #9087A2",
"A  c #958CA3",
"S  c #948CAD",
"D  c #9790A5",
"F  c #9C93A6",
"G  c #9F98A7",
"H  c #9D95AA",
"J  c #8E82B1",
"K  c #968BB5",
"L  c #998FB1",
"P  c #9C91BA",
"I  c #A199A7",
"U  c #A39CA9",
"Y  c #A99FA8",
"T  c #A39CB3",
"R  c #A095BC",
"E  c #A69CBE",
"W  c #A89DBF",
"Q  c #B09EB7",
"!  c #ABA4AA",
"~  c #B3ADAD",
"^  c #B7B1AE",
"/  c #BBB6AF",
"(  c #A7A1B2",
")  c #ABA3B3",
"_  c #ADA8B2",
"`  c #B0A4B6",
"'  c #B0ABB4",
"]  c #B7B0B7",
"[  c #B9B3B4",
"{  c #BEB9B2",
"}  c #C1B3AE",
"|  c #C1BCB1",
" . c #E7AEAA",
".. c #E8B4AC",
"X. c #E9BAAE",
"o. c #CFC682",
"O. c #C7C2B4",
"+. c #CBC6B4",
"@. c #CDC9B5",
"#. c #CDCABA",
"$. c #D2CEB6",
"%. c #DECBB4",
"&. c #D8C4BF",
"*. c #D0CDBA",
"=. c #D8CDBD",
"-. c #D5D2B7",
";. c #D5D2BA",
":. c #D9D6B9",
">. c #DDDABA",
",. c #ECC5B1",
"<. c #E6C8B3",
"1. c #EDCAB3",
"2. c #EED3B6",
"3. c #EED8B7",
"4. c #E1DEBA",
"5. c #EFDAB8",
"6. c #F3DDB9",
"7. c #E5E3BC",
"8. c #EAE6BD",
"9. c #EDEBBE",
"0. c #F3E2BA",
"q. c #F2EDBE",
"w. c #F9ECBE",
"e. c #F3F2BF",
"r. c #B2A8C5",
"t. c #BDB4C6",
"y. c #BDB3CC",
"u. c #C3BACD",
"i. c #C5BCD0",
"p. c #D8C0C0",
"a. c #D2CCC6",
"s. c #D5D1C0",
"d. c #CDC4D5",
"f. c #D9D1D6",
"g. c #F1DAC4",
"h. c #E3DCDC",
"j. c #E6E3C4",
"k. c #E8E5C2",
"l. c #EEECC3",
"z. c #E6E2CF",
"x. c #EEEBC9",
"c. c #F3E5C3",
"v. c #F8E7C4",
"b. c #F3EDC2",
"n. c #F2EFCB",
"m. c #F9ECC4",
"M. c #F4F3C0",
"N. c #F9F6C1",
"B. c #FAFAC2",
"V. c #F6F3C9",
"C. c #E7E2D3",
"Z. c #EEE9D3",
"A. c #E7E0DD",
"S. c #E9E3DE",
"D. c #EFEBD8",
"F. c #F2EDD5",
"G. c #F6F2D7",
/* pixels */
"                                                                                                                                ",
"                                                                                                                                ",
"                                                                                                                                ",
"                                                                                                                                ",
"                                                                                                                                ",
"                                                                                                                                ",
"                                                            * ; * ; ; * *                                                       ",
"                                                          > > > > > > > > >                                                     ",
"                                                        7 9 w w q w w w w q 7                                                   ",
"                                                      3 h A G U I I G U G A h 3                                                 ",
"                                                    : 7 Z ^ @.-.-.$.-.-.$.{ A 9 >                                               ",
"                                                  * > 7 A O.q.e.q.9.q.q.0.$.Y g 3 2                                             ",
"                                                * & ; 2 A +.e.w.w.0.6.0.6.<.} I Z h q                                           ",
"                                              = ; * ; 3 A +.9.w.6.1.1.1.1.1.%.+./ F r ,                                         ",
"                                            2 2 2 1 1 e I +.9.0.2.X.......,.6.0.-.! r , *                                       ",
"                                            h j V V V D ^ :.9.6.1... . ...,.6.q.>.! r , *                                       ",
"                                        , e D ~ { | | O.-.7.q.6.1... . ...,.6.q.>.! r , *                                       ",
"                                      * , r Y $.7.l.9.7.9.e.q.8.1.X.......,.6.q.>.! r , ;                                       ",
"                                      * , r ! >.B.B.B.M.B.M.e.9.2.1.,.,.,.2.0.e.>.! r , *                                       ",
"                                      * 1 r ! >.B.B.B.N.M.M.e.9.8.5.3.3.6.6.w.9.:.! r , *                                       ",
"                                      * , r ! :.M.N.M.M.M.e.M.e.q.q.q.q.e.e.N.M.:.! r , =                                       ",
"                                      * , e ! :.M.B.M.M.M.M.M.e.e.M.M.e.M.M.N.M.:.! r , *                                       ",
"                                      * 1 r ! :.M.B.M.e.l.e.M.M.M.M.M.M.N.N.e.e.:.! r , *                                       ",
"                                      * , e ! :.M.M.M.M.e.e.M.e.M.M.M.M.e.e.B.e.:.! r , =                                       ",
"                                      * , e ! :.e.B.e.e.M.M.M.M.M.9.M.M.M.M.M.M.:.! g , *                                       ",
"                                    ; * - e ! :.e.B.B.B.N.M.M.M.M.M.M.9.M.M.N.M.:.! r 1 = :                                     ",
"                                > > : ; > e ! >.e.B.N.N.M.M.M.e.M.M.e.M.M.M.N.M.:.! r , = > > >                                 ",
"                                > > , 1 7 b ^ >.e.9.7.7.7.9.e.e.M.M.M.M.M.M.B.M.:.! r 1 ; > > >                                 ",
"                                > 1 3 r A ! @.7.8.-.| / +.>.e.N.M.e.e.M.M.M.B.M.>.! r > ; > ,                                   ",
"                                ; 1 w D | -.8.9.>./ D Z ! -.e.B.M.M.M.l.M.M.B.M.:.! e 1 ;                                       ",
"                                ; 1 g ~ >.b.B.e.>.~ h r F +.9.e.M.M.M.M.M.B.B.M.:.! r , *                                       ",
"                                ; 1 j ^ 7.B.B.N.7.{ F D ~ -.9.e.M.M.M.M.M.M.M.M.:.! r , ; :                                     ",
"                                * 2 j ^ 7.B.B.M.8.-.+.| @.7.q.N.M.M.M.M.M.M.N.M.:.! r , * : ,                                   ",
"                                ; 2 r ~ 4.N.B.M.M.b.8.8.9.9.M.b.M.M.M.M.M.M.N.M.>.! r 1 : : > >                                 ",
"                                ; , h ^ 7.B.B.N.N.N.N.B.N.M.b.b.b.b.M.M.N.B.B.N.:.~ e , : - >                                   ",
"                                ; 2 h ^ 7.B.B.N.N.B.B.B.N.m.v.v.c.v.v.M.N.B.B.B.4.! r , : :                                     ",
"                                * 2 h ~ 4.M.N.M.M.M.M.l.0.c.g.g.g.g.g.c.l.M.N.M.:.! e , =                                       ",
"                                ; , r ( O.;.:.;.;.:.;.;.=.&.p.p.&.&.&.=.;.;.;.$.| I e 1                                         ",
"                                    w V D G ( _ _ ] _ ' ` ` ` W Q Q ) ` ) ) ( G D b w                                           ",
"                                      9 w e s C C C C J C z z C z z C C C j s w w 7                                             ",
"                                      6 6 9 w a a a a a a a a a a a d k C d d w y 8                                             ",
"                                      v x c g s a p p t t p t t t t d K T ( P L J d 8                                           ",
"                                      O o N n j a a p a a p a p p a C ] #.s.a.d.r.K u ,                                         ",
"                                      # @ o.B h a a d l l l l d d C G O.7.l.x.f.i.P u , =                                       ",
"                                      % $ o M g u l L ( ) ) ( ( ( _ { :.l.V.G.S.d.R u , =                                       ",
"                                      % $ o m 0 w S [ #.;.;.*.*.*.;.>.7.M.V.Z.A.d.R u , =                                       ",
"                                      % @ X x 6 w F @.9.M.l.9.l.l.M.9.e.M.l.C.f.i.P y > *                                       ",
"                                        @ . c < w G :.B.B.B.N.N.N.M.B.B.M.j.a.t.E J y ,                                         ",
"                                            6 1 9 I -.e.B.B.B.N.N.N.B.B.M.4.[ S k i                                             ",
"                                            , > w F $.q.M.M.M.M.b.M.M.M.l.$.U r 4 >                                             ",
"                                              > 9 A ^ +.:.j.x.n.x.x.j.>.+.~ Z 9 =                                               ",
"                                                7 g Z F [ a.h.D.D.C.a.] I b r 3                                                 ",
"                                                  1 3 i H t.f.h.h.f.y.L i 3 1                                                   ",
"                                                    ; 4 l W y.i.i.y.W z 4 ;                                                     ",
"                                                      1 i z K K K K C i 1                                                       ",
"                                                        5 y 5 y y 8 8 5                                                         ",
"                                                          > > > > > >                                                           ",
"                                                            = * * *                                                             ",
"                                                                                                                                ",
"                                                                                                                                ",
"                                                                                                                                ",
"                                                                                                                                ",
"                                                                                                                                ",
"                                                                                                                                "
};
