/* XPM */
static char *_e0904f8956742c38fa9f66c41f31424mhvNHKkV1dAedacn[] = {
/* columns rows colors chars-per-pixel */
"64 64 157 2 ",
"   c None",
".  c #BEB47F",
"X  c #C9BF7E",
"o  c #CFC57E",
"O  c #D0C67A",
"+  c #D3CA7F",
"@  c #E6DD79",
"#  c #EFE676",
"$  c #ECE378",
"%  c #F5EC76",
"&  c #4E3F8E",
"*  c #53448F",
"=  c #56488F",
"-  c #5C4D8D",
";  c #554690",
":  c #564890",
">  c #5B4D92",
",  c #5F5193",
"<  c #6B5D8E",
"1  c #635594",
"2  c #675A95",
"3  c #6A5D96",
"4  c #675A9A",
"5  c #6B5E9B",
"6  c #73658D",
"7  c #6D6197",
"8  c #6F629B",
"9  c #736694",
"0  c #7A6E93",
"q  c #71659B",
"w  c #74699A",
"e  c #796D9C",
"r  c #7C719C",
"t  c #6D64A9",
"y  c #7366A0",
"u  c #766AA2",
"i  c #796DA5",
"p  c #7067A9",
"a  c #746BAA",
"s  c #7E74A4",
"d  c #7E75AB",
"f  c #8B7E86",
"g  c #81779C",
"h  c #847A9E",
"j  c #857CA2",
"k  c #8376AA",
"l  c #847BAC",
"z  c #8A7FAE",
"x  c #998D85",
"c  c #91858C",
"v  c #9D9082",
"b  c #8A809F",
"n  c #9E9594",
"m  c #A39787",
"M  c #AAA08C",
"N  c #B8AE86",
"B  c #ABA290",
"V  c #8C83A1",
"C  c #8A82AE",
"Z  c #9087A2",
"A  c #958CA3",
"S  c #948CAD",
"D  c #9790A5",
"F  c #9C93A6",
"G  c #9F98A7",
"H  c #9D95AA",
"J  c #8E82B1",
"K  c #968BB5",
"L  c #998FB1",
"P  c #9C91BA",
"I  c #A199A7",
"U  c #A39CA9",
"Y  c #A99FA8",
"T  c #A39CB3",
"R  c #A095BC",
"E  c #A69CBE",
"W  c #A89DBF",
"Q  c #B09EB7",
"!  c #ABA4AA",
"~  c #B3ADAD",
"^  c #B7B1AE",
"/  c #BBB6AF",
"(  c #A7A1B2",
")  c #ABA3B3",
"_  c #ADA8B2",
"`  c #B0A4B6",
"'  c #B0ABB4",
"]  c #B7B0B7",
"[  c #B9B3B4",
"{  c #BEB9B2",
"}  c #C1B3AE",
"|  c #C1BCB1",
" . c #E7AEAA",
".. c #E8B4AC",
"X. c #E9BAAE",
"o. c #CFC682",
"O. c #C7C2B4",
"+. c #CBC6B4",
"@. c #CDC9B5",
"#. c #CDCABA",
"$. c #D2CEB6",
"%. c #DECBB4",
"&. c #D8C4BF",
"*. c #D0CDBA",
"=. c #D8CDBD",
"-. c #D5D2B7",
";. c #D5D2BA",
":. c #D9D6B9",
">. c #DDDABA",
",. c #ECC5B1",
"<. c #E6C8B3",
"1. c #EDCAB3",
"2. c #EED3B6",
"3. c #EED8B7",
"4. c #E1DEBA",
"5. c #EFDAB8",
"6. c #F3DDB9",
"7. c #E5E3BC",
"8. c #EAE6BD",
"9. c #EDEBBE",
"0. c #F3E2BA",
"q. c #F2EDBE",
"w. c #F9ECBE",
"e. c #F3F2BF",
"r. c #B2A8C5",
"t. c #BDB4C6",
"y. c #BDB3CC",
"u. c #C3BACD",
"i. c #C5BCD0",
"p. c #D8C0C0",
"a. c #D2CCC6",
"s. c #D5D1C0",
"d. c #CDC4D5",
"f. c #D9D1D6",
"g. c #F1DAC4",
"h. c #E3DCDC",
"j. c #E6E3C4",
"k. c #E8E5C2",
"l. c #EEECC3",
"z. c #E6E2CF",
"x. c #EEEBC9",
"c. c #F3E5C3",
"v. c #F8E7C4",
"b. c #F3EDC2",
"n. c #F2EFCB",
"m. c #F9ECC4",
"M. c #F4F3C0",
"N. c #F9F6C1",
"B. c #FAFAC2",
"V. c #F6F3C9",
"C. c #E7E2D3",
"Z. c #EEE9D3",
"A. c #E7E0DD",
"S. c #E9E3DE",
"D. c #EFEBD8",
"F. c #F2EDD5",
"G. c #F6F2D7",
/* pixels */
"                                                                                                                                ",
"                                                                                                                                ",
"                                                                                                                                ",
"                                                                                                                                ",
"                                                                                                                                ",
"                                                                                                                                ",
"                                                      ; * ; * ; ; ;                                                             ",
"                                                    > > > > : > > : >                                                           ",
"                                                  q 9 9 w w w w w w q q                                                         ",
"                                                3 j D I U U I I I G A g 5                                                       ",
"                                              : q A / $.-.-.$.-.-.$.^ Z 7 :                                                     ",
"                                            1 7 g Y $.8.q.q.q.w.e.8.O.A 3 : ;                                                   ",
"                                          9 h Z I } <.6.0.6.0.w.w.e.+.A 3 = & *                                                 ",
"                                        , e F / @.%.<.1.1.,.1.6.w.q.+.A 3 ; * : :                                               ",
"                                      ; , r ! :.8.2.,.......X.1.0.9.@.I w 2 1 1 3 2                                             ",
"                                      * , r ! >.w.6.,... . .X.1.0.9.:.^ F V V V V g                                             ",
"                                      ; , r ! >.q.6.X... . .X.1.0.9.7.-.O.{ { { ~ D e >                                         ",
"                                      * , r ! :.q.6.1.X.....X.<.8.9.M.9.8.9.9.9.$.Y r 1 *                                       ",
"                                      * , r ! :.q.0.2.<.,.,.,.2.0.e.M.B.e.B.B.B.>.! r , *                                       ",
"                                      * , r ! :.e.q.0.5.2.6.6.0.q.e.M.B.e.B.B.N.>.! r , *                                       ",
"                                      * , r ! :.M.M.M.q.q.e.9.9.q.e.e.e.M.M.N.M.:.! r 1 ;                                       ",
"                                      * , r ! :.M.N.M.M.e.M.M.M.e.e.M.M.M.N.N.M.:.! r > *                                       ",
"                                      * , r ! :.M.B.M.M.M.M.M.M.M.e.M.e.M.M.B.e.:.! r 1 ;                                       ",
"                                      * , r ! :.M.B.M.M.M.M.M.M.M.M.M.M.e.M.B.e.:.! r > ;                                       ",
"                                      ; , e ! :.e.B.B.e.M.M.M.M.l.e.M.e.M.N.N.M.:.! e , ;                                       ",
"                                    : : 1 r ! :.e.e.N.e.M.M.M.9.e.e.M.N.M.B.B.M.:.! 0 : * ;                                     ",
"                                > > > : > r ! >.M.N.N.e.M.9.M.M.M.M.M.N.M.N.B.M.>.! e > ; : > >                                 ",
"                                , , : : 1 r ! :.M.N.M.M.M.M.M.M.e.M.9.7.7.7.M.9.>.~ V 7 1 > , >                                 ",
"                                  > : : 1 r ! >.M.N.M.M.M.M.M.M.e.e.>.+./ { -.9.7.@.! A r 3 1 :                                 ",
"                                      ; , r ! :.M.N.M.M.M.M.M.M.e.9.-.! Z D / 4.9.8.-.{ F w 1 ;                                 ",
"                                      * , r ! :.M.N.M.M.M.M.M.M.e.9.@.G r b ~ :.M.B.M.>.~ g 1 ;                                 ",
"                                    : ; , r ! :.M.B.M.M.M.M.M.M.B.e.-.! D G / 4.N.B.B.7.^ h 1 ;                                 ",
"                                  > > * 1 r ! >.M.N.M.M.M.M.e.N.e.e.4.$.| O.:.8.M.B.B.7.^ h 1 ;                                 ",
"                                > , : = , r ! :.M.B.M.e.M.q.M.q.M.e.q.q.8.9.9.q.M.B.N.4.^ j 1 ;                                 ",
"                                  , > = , r ! 4.N.B.N.N.M.b.m.w.M.b.M.V.B.N.B.N.N.B.N.7.~ h 1 ;                                 ",
"                                    : * , r ! >.B.B.B.N.b.m.v.v.c.v.m.N.B.B.B.N.B.B.B.7.^ h 1 *                                 ",
"                                      * > r ! :.M.N.M.l.c.c.g.6.g.g.k.c.q.M.M.M.M.N.e.>.~ h 1 ;                                 ",
"                                        1 e I | $.-.:.-.=.p.&.i.i.&.&.a.-.:.:.;.:.-.-.O.Y g 1 ;                                 ",
"                                          w b D G U _ ) ) ` W ` Q Q ` ` ' ' ' ' _ ( I F V e                                     ",
"                                            9 q e s l C C z C C z z z C C C C C C s u w 8                                       ",
"                                            5 y y s l C d d a a g u a a a a a a a w 9 6 6                                       ",
"                                          q k J L H ( T L d p t t t t p t t p p s h c x v                                       ",
"                                        , w K r.d.a.s.#._ K a p p p p p p a a a s n N o O                                       ",
"                                      * , a P i.f.Z.n.7.O.H C d l l l z C d a a V M o.@ #                                       ",
"                                      * > u R d.S.G.V.9.:.{ _ ( T ) ) ) ( L d u r M O $ %                                       ",
"                                      * , i R d.A.F.V.9.k.>.*.*.*.*.;.-.*.[ S w 0 v o $ %                                       ",
"                                      ; , u P u.f.z.l.e.M.l.e.q.c.e.M.N.9.@.H w 9 x o @ %                                       ",
"                                        , y z E t.a.k.B.B.e.e.B.e.e.B.B.N.-.G w < c . @                                         ",
"                                            a k L [ >.N.B.B.e.e.e.N.B.B.e.-.I w 1 6                                             ",
"                                            > 2 e Y $.k.M.e.M.M.M.M.N.V.9.@.G w , -                                             ",
"                                              = 9 Z ~ @.:.j.n.F.n.x.k.>.@.^ A q -                                               ",
"                                                2 r V G [ a.h.D.D.C.a.' G Z g 7                                                 ",
"                                                  1 3 i H y.f.h.h.f.t.L i 3 1                                                   ",
"                                                    ; 4 l E y.i.i.y.W z 4 ;                                                     ",
"                                                      1 i z K K K K z i 1                                                       ",
"                                                        5 q q 8 y q 8 5                                                         ",
"                                                          > > > > > >                                                           ",
"                                                            * * * *                                                             ",
"                                                                                                                                ",
"                                                                                                                                ",
"                                                                                                                                ",
"                                                                                                                                ",
"                                                                                                                                ",
"                                                                                                                                "
};
