/* XPM */
static char *result[] = {
/* columns rows colors chars-per-pixel */
"64 64 71 1 ",
"  c #5C7678",
". c #5E7879",
"X c #627777",
"o c #6A7573",
"O c #6F7871",
"+ c #627F7A",
"@ c #717971",
"# c #8B5F5E",
"$ c #8E605E",
"% c #91605C",
"& c #996A5D",
"* c #A7765B",
"= c #AC7A5A",
"- c #8A5E60",
"; c #8D6364",
": c #816865",
"> c #896B63",
", c #9A6D61",
"< c #937461",
"1 c #9E7162",
"2 c #987961",
"3 c #A37761",
"4 c #A67A63",
"5 c #AC7F60",
"6 c #A1796A",
"7 c #62817A",
"8 c #6A877D",
"9 c #678A7A",
"0 c #6A8C7C",
"q c #6D967C",
"w c #70967D",
"e c #749B7E",
"r c #B2825E",
"t c #AE8163",
"y c #B38660",
"u c #B68963",
"i c #B98D64",
"p c #BA8F69",
"a c #BC9066",
"s c #BC936B",
"d c #C1976C",
"f c #C49A6C",
"g c #6F8D80",
"h c #718F81",
"j c #779582",
"k c #789782",
"l c #779E80",
"z c #799F81",
"x c #7CA182",
"c c #80A385",
"v c #86AC87",
"b c #88AE87",
"n c #8AAC89",
"m c #8EB38A",
"M c #91B58C",
"N c #97BB8E",
"B c #98BC8E",
"V c #9ABE90",
"C c #9DC191",
"Z c #A1C593",
"A c #A5CA94",
"S c #A9CF97",
"D c #ABD097",
"F c #AED499",
"G c #B5D697",
"H c #B2D699",
"J c #B5D99A",
"K c #BDDD9A",
"L c #C1DF9A",
"P c #C3E19A",
"I c None",
/* pixels */
"IIIIIIIIIIIIIIIIIIIIIIIIIIIIIIIIIIIIIIIIIIIIIIIIIIIIIIIIIIIIIIII",
"IIIIIIIIIIIIIIIIIIIIIIIIIIIIIIIIIIIIIIIIIIIIIIIIIIIIIIIIIIIIIIII",
"IIIIIIIIIIIIIIIIIIIIIIII     ......   ..  IIIIIIIIIIIIIIIIIIIIII",
"IIIIIIIIIIIIIIIIIIIIIIII8ggjhhhhhhhhhgggg8IIIIIIIIIIIIIIIIIIIIII",
"IIIIIIIIIIIIIIIIIIII   gznNVVVVVVVVVVNnnncg IIIIIIIIIIIIIIIIIIII",
"IIIIIIIIIIIIIIIIIIIIgggkNAFHHHJJJHHHHHAZZMhgIIIIIIIIIIIIIIIIIIII",
"IIIIIIIIIIIIIIII   gknNVADFHKKPKPKHHKLJGHZMzg   IIIIIIIIIIIIIIII",
"IIIIIIIIIIIIIIIIgggkMADHHFFHKPPPPKHHKLLLHDAmj8ggIIIIIIIIIIIIIIII",
"IIIIIIIIIIIIII 8zmNCADHHFFFHKPPPPKFHKPPKHFDZMnnc8 IIIIIIIIIIIIII",
"IIIIIIIIIIIIII8jMAFJJJHHFFHJKPPLKKFHJKKKHFHDAVVMk8IIIIIIIIIIIIII",
"IIIIIIIIIIII 8xMZFKLLLKJHHJPPPPLJHFFHHJJFFFDDDDZMx8 IIIIIIIIIIII",
"IIIIIIIIIIII8jnZDJKPLLLLJJKPPLLJHFFHHHHJJHFFDHHSZnk8IIIIIIIIIIII",
"IIIIIIIIII gcnNCSJKPPLPLKKPPPKJHFFFHKKKKKJHFFFHSZMnc8.IIIIIIIIII",
"IIIIIIIIII gnZCZSHJKKLLPPPKKKKHFFFFHKPPPPPJHFJJSCVVn8.IIIIIIIIII",
"IIIIIIIIII gNDSSFFHHJJPPPPJJHHFFFFFHKPPPPPKKKPKJZNNn8 IIIIIIIIII",
"IIIIIIIIIIgkCFHHFFFFFHJKKJHFFFFFFFFHJKKKKKPPPPPJACVMk8IIIIIIIIII",
"IIIIIIII 8xMAHFFFFFFFFHHHFFFFFFFFFFFHHHGHJKPPPPKFADZMc8.IIIIIIII",
"IIIIIIII 8nZDFFFFFFFFFFFFFFFFFFFFFFFFFFFFHKKKKKKGHFDZn8 IIIIIIII",
"IIIIIIII gnCDFFFFFFFFFFFFFFFFFFFFFFFFFFFFFHHHHFHFFFDCn8.IIIIIIII",
"IIIIIIII gnCADDDDFFFFFDASSFFFFFFFFFFFFSSSDSDDFFFDDDACng IIIIIIII",
"IIIIIIII 8vVCCCCDFFFFDZVCCSFFFFFFFFFFSZCCCCCSFFSZVVCVn8 IIIIIIII",
"IIIIIIII 8nNBNNCDFFFFDVNNCSFFFFFFFFFHSBNNNNCSFFSCNNNncg.IIIIIIII",
"IIIIIIII gnBBNNCDFFFFDVNNCSFFFFFFFFFFSCNNNNBSFFSCNNnk8IIIIIIIIII",
"IIIIIIII gnBBNNCZDDADAVNNCASSSSSFFFFDAZCCCCCSSSAVNVv8 IIIIIIIIII",
"IIIIIIII.8nVNNNBVCCCCCBNNBVCCCCCSFFDZCSSSSSSCCCCNBVv8.IIIIIIIIII",
"IIIIIIII.8xmNNNBNNVCCCCCBNNNNNNCASDAVCASSDSACNNNNBNnj8IIIIIIIIII",
"IIIIIIIIIIgjnBBBNVADSSSACNNNNNNBBCCBBNVCCCCCNNNNNBNNmc8.IIIIIIII",
"IIIIIIIIII 8vBBNNVASSSSAVNNNBNNNBNNNNNNNNNNNNNNNNNNBVn8.IIIIIIII",
"IIIIIIIIII 8nCBNNBCCCCCCBNNNNNNNNNBNNNBNNNNBNNNNNNBBCn8.IIIIIIII",
"IIIIIIIIII.gbBBBNBNNNNNNNNNBBBBNBNNNNNNNBNNBBBBNBBNNMx8.IIIIIIII",
"IIIIIIII.79lmBBBNNNBBNNNNNBBBNBBNNNNNBBNNNNNBBNBBBBMxl7.IIIIIIII",
"IIIIIIIIX70lvmmmNNmmmmNNNNmmmmmmNNBNNNNNNNmmmmmmmmmvl07XIIIIIIII",
"IIIIIIII.7qqeexxmbxexxbCCmxexexxmBNNNNNNNmxeexeeeeeeq07XIIIIIIII",
"IIIIIIII.79qqqqlmCeqqebCCCeqqqqemBNNNCNNNmxqqqqqeqeeqq7.IIIIIIII",
"IIIIIIII.70qqwqlmmxqqemCMbxqqqqemBBNBNBBCmeqqqqqqqqqq97+IIIIIIII",
"IIIIIIII.7qwwwqebbeqqebmmbxeeexxmBBNmmmmmbxxexeeeqqqq97.IIIIIIII",
"IIIIIIII.99wqqeeeeeqqqeeexmmmmmmNCCmveeeexnmmmmbeqq077IIIIIIIIII",
"IIIIIIII.79qqqqqeexexeeqqebmmmmmbmmbeqwwqevmMmmveqqq7 IIIIIIIIII",
"IIIIIIIIII779qqebmmmmbeqqqexxexxeeeewqwqqeezxlzleqqq7 IIIIIIIIII",
"IIIIIIIIII.7qqqlbMmmmbeqqqqqqqqqwqqqqwqqqqqqqqqqwqqq7.IIIIIIIIII",
"IIIIIIIIII.70qqweexexeeqeqqqqqqqwqqqqqqqqeqqqqqqqqq07XIIIIIIIIII",
"IIIIIIIIII.79qqqqqqqqqqqqqqqqqqqqqqwqqqqqqqqqqqqqqq97.IIIIIIIIII",
"IIIIIIIIIIII+90qqqqqqqqqqqqqqqqqqqqqqqqqqqqqqqqeqq87IIIIIIIIIIII",
"IIIIIIIIIIII.+9qqqqqqqqqqqqqqqqeqqqqqqqqqqqqq9q9q97.IIIIIIIIIIII",
"IIIIIIIIIIIIII7779qqeqqqqqqqwwqwqqqqqqqqeqqq7+77.7IIIIIIIIIIIIII",
"IIIIIIIIIIIIII.. .9qq9qq9qq999q0qq9q9qqq0qq97.....IIIIIIIIIIIIII",
"IIIIIIIIIIIIIIIIII7777777777777+777777777777IIIIIIIIIIIIIIIIIIII",
"IIIIIIIIIIIIIIIIII....  oOO@OO@@OOOOOOoX....IIIIIIIIIIIIIIIIIIII",
"IIIIIIIIIIIIIIIIIIIIIIII:><2222222222<>:IIIIIIIIIIIIIIIIIIIIIIII",
"IIIIIIIIIIIIIIIIIIIIIIII;&*==========*&%IIIIIIIIIIIIIIIIIIIIIIII",
"IIIIIIIIIIIIIIIIIIIIIIII%&5y========r=&%IIIIIIIIIIIIIIIIIIIIIIII",
"IIIIIIIIIIIIIIIIIIIIIIII%&5yr======rut&$IIIIIIIIIIIIIIIIIIIIIIII",
"IIIIIIIIIIIIIIIIIIIIIIII$,5uyyrrrrrru5&$IIIIIIIIIIIIIIIIIIIIIIII",
"IIIIIIIIIIIIIIIIIIIIIIII#&5iiiiuupaapt&$IIIIIIIIIIIIIIIIIIIIIIII",
"IIIIIIIIIIIIIIIIIIIIIIII#&5iddruadffdu,#IIIIIIIIIIIIIIIIIIIIIIII",
"IIIIIIIIIIIIIIIIIIIIIII;,3ypdddidffffa4,;IIIIIIIIIIIIIIIIIIIIIII",
"IIIIIIIIIIIIIIIIIIIIII;,pssfffsffffffdat,;IIIIIIIIIIIIIIIIIIIIII",
"IIIIIIIIIIIIIIIIIIIIII;1pffffffffffffffa1-IIIIIIIIIIIIIIIIIIIIII",
"IIIIIIIIIIIIIIIIIIIIIII6sffffffffffffffs6IIIIIIIIIIIIIIIIIIIIIII",
"IIIIIIIIIIIIIIIIIIIIIIIIsssfsffffdfffsfsIIIIIIIIIIIIIIIIIIIIIIII",
"IIIIIIIIIIIIIIIIIIIIIIIIIIIIIIffffIIIIIIIIIIIIIIIIIIIIIIIIIIIIII",
"IIIIIIIIIIIIIIIIIIIIIIIIIIIIIIssssIIIIIIIIIIIIIIIIIIIIIIIIIIIIII",
"IIIIIIIIIIIIIIIIIIIIIIIIIIIIIIIIIIIIIIIIIIIIIIIIIIIIIIIIIIIIIIII",
"IIIIIIIIIIIIIIIIIIIIIIIIIIIIIIIIIIIIIIIIIIIIIIIIIIIIIIIIIIIIIIII"
};
